<?xml version="1.0" encoding="UTF-8" standalone="no"?><!DOCTYPE svg PUBLIC "-//W3C//DTD SVG 1.1//EN" "http://www.w3.org/Graphics/SVG/1.1/DTD/svg11.dtd"><svg width="100%" height="100%" viewBox="0 0 1600 1600" version="1.1" xmlns="http://www.w3.org/2000/svg" xmlns:xlink="http://www.w3.org/1999/xlink" xml:space="preserve" xmlns:serif="http://www.serif.com/" style="fill-rule:evenodd;clip-rule:evenodd;stroke-linejoin:round;stroke-miterlimit:2;"><g id="Layer2"><g><path d="M107.37,824.32l-52.184,0.026l-0.005,-10.394l36.943,-12.37c3.44,-1.141 6.014,-1.972 7.723,-2.495c-1.899,-0.593 -4.688,-1.517 -8.367,-2.773l-36.313,-12.476l-0.005,-9.291l52.184,-0.025l0.003,6.657l-43.676,0.021l43.683,15.142l0.003,6.23l-44.416,15.113l44.423,-0.021l0.004,6.656Z" style="fill:#888;fill-rule:nonzero;"/><path d="M102.666,739.534c2.018,2.372 3.443,4.655 4.274,6.85c0.832,2.195 1.249,4.55 1.25,7.065c0.002,4.153 -1.011,7.345 -3.039,9.577c-2.028,2.231 -4.62,3.348 -7.776,3.349c-1.851,0.001 -3.542,-0.419 -5.073,-1.261c-1.531,-0.841 -2.76,-1.944 -3.686,-3.308c-0.926,-1.364 -1.627,-2.901 -2.102,-4.609c-0.333,-1.258 -0.654,-3.156 -0.964,-5.695c-0.62,-5.173 -1.357,-8.981 -2.213,-11.425c-0.878,-0.023 -1.435,-0.035 -1.673,-0.035c-2.61,0.001 -4.449,0.608 -5.516,1.818c-1.447,1.638 -2.169,4.071 -2.168,7.298c0.002,3.014 0.531,5.239 1.587,6.674c1.057,1.435 2.926,2.496 5.608,3.183l-0.851,6.265c-2.682,-0.568 -4.848,-1.504 -6.498,-2.809c-1.649,-1.304 -2.92,-3.19 -3.811,-5.658c-0.891,-2.467 -1.337,-5.326 -1.339,-8.577c-0.002,-3.228 0.377,-5.85 1.135,-7.868c0.759,-2.017 1.713,-3.501 2.864,-4.451c1.15,-0.949 2.603,-1.614 4.359,-1.995c1.092,-0.214 3.061,-0.322 5.909,-0.323l8.543,-0.004c5.956,-0.003 9.723,-0.141 11.301,-0.415c1.578,-0.274 3.091,-0.814 4.538,-1.622l0.003,6.692c-1.328,0.665 -2.883,1.093 -4.662,1.284Zm-14.31,0.541c0.951,2.325 1.759,5.813 2.426,10.464c0.381,2.633 0.809,4.496 1.284,5.587c0.475,1.092 1.17,1.934 2.084,2.527c0.914,0.593 1.928,0.889 3.044,0.888c1.708,-0.001 3.132,-0.648 4.27,-1.942c1.139,-1.294 1.707,-3.186 1.706,-5.678c-0.001,-2.468 -0.542,-4.663 -1.623,-6.585c-1.08,-1.921 -2.558,-3.332 -4.433,-4.233c-1.448,-0.688 -3.584,-1.031 -6.408,-1.03l-2.35,0.002Z" style="fill:#888;fill-rule:nonzero;"/><path d="M107.321,723.727l-37.803,0.018l-0.002,-5.766l5.731,-0.003c-2.683,-1.47 -4.451,-2.828 -5.306,-4.073c-0.855,-1.246 -1.283,-2.616 -1.284,-4.111c-0.001,-2.159 0.687,-4.355 2.062,-6.586l5.945,2.204c-0.924,1.567 -1.386,3.133 -1.386,4.699c0.001,1.4 0.423,2.658 1.266,3.773c0.843,1.115 2.012,1.909 3.507,2.383c2.279,0.711 4.771,1.066 7.476,1.064l19.791,-0.009l0.003,6.407Z" style="fill:#888;fill-rule:nonzero;"/><path d="M107.309,699.344l-52.183,0.025l-0.003,-6.407l29.758,-0.014l-15.385,-15.157l-0.004,-8.294l14.032,14.446l23.77,-15.923l0.004,7.902l-19.322,12.503l4.344,4.519l14.986,-0.007l0.003,6.407Z" style="fill:#888;fill-rule:nonzero;"/><path d="M95.106,637.057l0.815,-6.621c3.869,1.042 6.872,2.975 9.009,5.798c2.137,2.823 3.206,6.429 3.208,10.819c0.003,5.53 -1.697,9.915 -5.101,13.156c-3.404,3.24 -8.179,4.862 -14.325,4.865c-6.36,0.003 -11.297,-1.632 -14.81,-4.905c-3.514,-3.273 -5.272,-7.52 -5.275,-12.741c-0.002,-5.054 1.716,-9.184 5.156,-12.389c3.439,-3.206 8.279,-4.81 14.521,-4.813c0.379,0 0.949,0.012 1.708,0.035l0.014,28.192c4.152,-0.239 7.332,-1.416 9.538,-3.529c2.206,-2.113 3.308,-4.747 3.306,-7.904c-0.001,-2.349 -0.619,-4.354 -1.854,-6.014c-1.234,-1.661 -3.205,-2.977 -5.91,-3.949Zm-10.349,21.042l-0.01,-21.108c-3.18,0.286 -5.564,1.094 -7.153,2.424c-2.467,2.042 -3.7,4.689 -3.698,7.94c0.001,2.942 0.987,5.416 2.958,7.42c1.97,2.004 4.605,3.112 7.903,3.324Z" style="fill:#888;fill-rule:nonzero;"/><path d="M101.535,608.4l5.659,-0.928c0.38,1.803 0.571,3.416 0.572,4.84c0.001,2.326 -0.366,4.13 -1.101,5.411c-0.735,1.282 -1.702,2.184 -2.9,2.707c-1.198,0.523 -3.719,0.785 -7.564,0.787l-21.749,0.01l0.003,4.699l-4.984,0.002l-0.002,-4.698l-9.362,0.004l-3.847,-6.37l13.206,-0.006l-0.003,-6.443l4.983,-0.002l0.003,6.443l22.105,-0.011c1.828,-0.001 3.002,-0.114 3.524,-0.34c0.522,-0.226 0.937,-0.594 1.245,-1.104c0.309,-0.51 0.463,-1.24 0.462,-2.189c0,-0.712 -0.084,-1.65 -0.25,-2.812Z" style="fill:#888;fill-rule:nonzero;"/><path d="M62.448,602.118l-7.369,0.004l-0.003,-6.408l7.368,-0.003l0.004,6.407Zm44.815,-0.021l-37.803,0.018l-0.003,-6.407l37.802,-0.019l0.004,6.408Z" style="fill:#888;fill-rule:nonzero;"/><path d="M107.255,585.936l-37.803,0.018l-0.003,-5.766l5.375,-0.003c-4.154,-2.774 -6.232,-6.784 -6.235,-12.028c-0.001,-2.278 0.407,-4.373 1.225,-6.283c0.818,-1.911 1.891,-3.341 3.22,-4.291c1.328,-0.95 2.906,-1.615 4.733,-1.996c1.186,-0.238 3.263,-0.357 6.229,-0.359l23.244,-0.011l0.003,6.407l-22.995,0.011c-2.61,0.002 -4.562,0.252 -5.855,0.751c-1.293,0.499 -2.325,1.383 -3.096,2.653c-0.77,1.27 -1.155,2.759 -1.154,4.468c0.001,2.729 0.868,5.084 2.602,7.064c1.733,1.981 5.02,2.97 9.861,2.968l20.646,-0.01l0.003,6.407Z" style="fill:#888;fill-rule:nonzero;"/><path d="M110.368,546.566l0.923,-6.23c1.922,-0.262 3.321,-0.986 4.199,-2.173c1.186,-1.591 1.778,-3.762 1.777,-6.515c-0.002,-2.966 -0.596,-5.256 -1.784,-6.869c-1.187,-1.613 -2.849,-2.704 -4.985,-3.273c-1.305,-0.331 -4.046,-0.484 -8.222,-0.458c3.3,2.798 4.95,6.286 4.952,10.462c0.003,5.197 -1.87,9.22 -5.618,12.07c-3.748,2.849 -8.244,4.275 -13.489,4.278c-3.607,0.002 -6.935,-0.649 -9.985,-1.953c-3.05,-1.304 -5.406,-3.195 -7.069,-5.674c-1.662,-2.479 -2.494,-5.392 -2.495,-8.738c-0.003,-4.461 1.799,-8.14 5.405,-11.037l-4.556,0.002l-0.003,-5.909l32.677,-0.015c5.885,-0.003 10.056,0.594 12.512,1.791c2.457,1.197 4.398,3.095 5.823,5.693c1.425,2.597 2.138,5.795 2.14,9.592c0.002,4.508 -1.01,8.152 -3.038,10.929c-2.027,2.777 -5.082,4.12 -9.164,4.027Zm-22.712,-5.293c4.959,-0.002 8.578,-0.989 10.855,-2.96c2.277,-1.97 3.415,-4.439 3.413,-7.405c-0.001,-2.943 -1.135,-5.41 -3.403,-7.403c-2.267,-1.992 -5.821,-2.987 -10.662,-2.984c-4.627,0.002 -8.115,1.03 -10.464,3.084c-2.348,2.053 -3.521,4.528 -3.52,7.423c0.001,2.848 1.159,5.268 3.474,7.26c2.315,1.992 5.75,2.987 10.307,2.985Z" style="fill:#888;fill-rule:nonzero;"/><path d="M81.639,465.279c-2.492,0.001 -4.616,-0.882 -6.373,-2.649c-1.757,-1.767 -2.636,-3.884 -2.637,-6.352c-0.001,-2.492 0.876,-4.622 2.631,-6.391c1.755,-1.769 3.878,-2.654 6.37,-2.655c2.492,-0.001 4.622,0.882 6.391,2.649c1.769,1.767 2.654,3.896 2.655,6.388c0.001,2.468 -0.882,4.586 -2.649,6.355c-1.767,1.769 -3.896,2.654 -6.388,2.655Z" style="fill:#888;fill-rule:nonzero;"/><path d="M107.16,388.38l-52.177,13.872l-0.004,-7.084l34.204,-7.954c3.583,-0.856 7.142,-1.593 10.678,-2.212c-5.578,-1.326 -8.793,-2.108 -9.648,-2.345l-35.244,-9.914l-0.004,-8.329l26.408,-7.488c6.549,-1.878 12.706,-3.234 18.472,-4.067c-3.299,-0.663 -7.084,-1.527 -11.356,-2.593l-33.535,-8.171l-0.003,-6.941l52.19,14.284l0.003,6.657l-39.755,11.018c-3.322,0.927 -5.363,1.474 -6.122,1.64c2.397,0.545 4.438,1.054 6.123,1.528l39.766,11.051l0.004,7.048Z" style="fill:#888;fill-rule:nonzero;"/><path d="M94.946,304.95l0.815,-6.622c3.869,1.043 6.871,2.975 9.009,5.798c2.137,2.823 3.206,6.429 3.208,10.82c0.003,5.529 -1.697,9.914 -5.101,13.155c-3.404,3.241 -8.179,4.862 -14.325,4.865c-6.36,0.003 -11.297,-1.632 -14.81,-4.905c-3.514,-3.273 -5.272,-7.52 -5.275,-12.74c-0.002,-5.055 1.716,-9.185 5.156,-12.39c3.439,-3.205 8.279,-4.81 14.521,-4.813c0.379,0 0.949,0.012 1.708,0.035l0.014,28.192c4.152,-0.239 7.332,-1.416 9.538,-3.529c2.206,-2.113 3.308,-4.747 3.306,-7.903c-0.001,-2.35 -0.619,-4.355 -1.854,-6.015c-1.234,-1.661 -3.205,-2.977 -5.91,-3.948Zm-10.349,21.042l-0.01,-21.109c-3.18,0.287 -5.564,1.095 -7.153,2.424c-2.467,2.042 -3.7,4.689 -3.698,7.94c0.001,2.942 0.987,5.416 2.958,7.42c1.97,2.004 4.605,3.113 7.903,3.325Z" style="fill:#888;fill-rule:nonzero;"/><path d="M107.109,284.369l0.003,5.945l-52.183,0.025l-0.003,-6.407l18.616,-0.009c-3.394,-2.704 -5.093,-6.156 -5.095,-10.356c-0.001,-2.326 0.467,-4.527 1.403,-6.604c0.936,-2.077 2.253,-3.786 3.949,-5.127c1.696,-1.342 3.742,-2.393 6.138,-3.154c2.397,-0.76 4.96,-1.141 7.689,-1.142c6.478,-0.004 11.486,1.596 15.023,4.798c3.538,3.202 5.307,7.045 5.31,11.53c0.002,4.462 -1.859,7.963 -5.584,10.504l4.734,-0.003Zm-19.186,0.081c4.533,-0.002 7.807,-0.621 9.824,-1.856c3.297,-2.019 4.945,-4.748 4.944,-8.189c-0.002,-2.801 -1.219,-5.22 -3.652,-7.26c-2.434,-2.04 -6.059,-3.058 -10.876,-3.056c-4.936,0.002 -8.578,0.983 -10.927,2.942c-2.348,1.959 -3.522,4.326 -3.52,7.103c0.001,2.8 1.218,5.22 3.652,7.26c2.433,2.039 5.952,3.058 10.555,3.056Z" style="fill:#888;fill-rule:nonzero;"/></g><g><path d="M1491.85,250.834l52.172,20.079l-0.006,7.44l-52.201,21.321l0.006,-7.867l15.81,-6.076l0.015,-21.821l-15.801,-5.743l0.005,-7.333Zm21.419,15.073l-0.013,17.692l14.457,-5.436c4.391,-1.658 8,-2.89 10.824,-3.695c-3.346,-0.666 -6.667,-1.606 -9.965,-2.819l-15.303,-5.742Z" style="fill:#888;fill-rule:nonzero;"/><path d="M1491.79,328.9l4.77,0.003c-3.748,-2.4 -5.62,-5.925 -5.617,-10.577c0.002,-3.013 0.835,-5.784 2.498,-8.31c1.663,-2.526 3.984,-4.482 6.963,-5.868c2.979,-1.387 6.403,-2.078 10.271,-2.076c3.774,0.003 7.197,0.634 10.269,1.894c3.072,1.26 5.426,3.149 7.062,5.665c1.636,2.517 2.452,5.33 2.45,8.439c-0.001,2.278 -0.483,4.307 -1.446,6.086c-0.962,1.779 -2.215,3.226 -3.758,4.34l18.724,0.013l-0.005,6.372l-52.186,-0.037l0.005,-5.944Zm18.881,-20.242c-4.842,-0.003 -8.461,1.014 -10.86,3.054c-2.398,2.039 -3.598,4.447 -3.6,7.223c-0.002,2.801 1.141,5.181 3.43,7.14c2.289,1.96 5.782,2.941 10.481,2.944c5.174,0.004 8.972,-0.99 11.394,-2.982c2.422,-1.992 3.634,-4.447 3.636,-7.366c0.002,-2.848 -1.159,-5.228 -3.484,-7.14c-2.324,-1.912 -5.99,-2.87 -10.997,-2.873Z" style="fill:#888;fill-rule:nonzero;"/><path d="M1491.77,355.42l37.815,-14.355l-0.005,6.764l-22.646,8.1c-2.445,0.876 -4.985,1.681 -7.62,2.415c1.993,0.571 4.39,1.368 7.189,2.39l23.062,8.417l-0.005,6.586l-37.794,-14.337l0.004,-5.98Z" style="fill:#888;fill-rule:nonzero;"/><path d="M1503.91,407.258l-0.823,6.621c-3.868,-1.047 -6.868,-2.983 -9.002,-5.809c-2.134,-2.826 -3.199,-6.434 -3.196,-10.824c0.004,-5.529 1.71,-9.913 5.117,-13.15c3.408,-3.237 8.185,-4.853 14.332,-4.848c6.36,0.004 11.295,1.645 14.805,4.923c3.51,3.277 5.263,7.526 5.259,12.747c-0.003,5.055 -1.727,9.183 -5.17,12.384c-3.443,3.202 -8.286,4.8 -14.527,4.796c-0.38,0 -0.95,-0.013 -1.709,-0.037l0.02,-28.193c-4.153,0.234 -7.334,1.407 -9.543,3.517c-2.208,2.111 -3.314,4.744 -3.316,7.9c-0.001,2.35 0.614,4.356 1.847,6.018c1.233,1.662 3.202,2.98 5.906,3.955Zm10.374,-21.031l-0.015,21.11c3.18,-0.283 5.566,-1.088 7.157,-2.416c2.47,-2.039 3.706,-4.684 3.708,-7.935c0.002,-2.943 -0.981,-5.418 -2.949,-7.425c-1.969,-2.006 -4.602,-3.118 -7.901,-3.334Z" style="fill:#888;fill-rule:nonzero;"/><path d="M1491.73,421.845l37.804,0.026l-0.004,5.767l-5.731,-0.004c2.681,1.473 4.448,2.833 5.301,4.08c0.854,1.246 1.28,2.617 1.279,4.112c-0.002,2.16 -0.692,4.354 -2.07,6.584l-5.943,-2.211c0.927,-1.566 1.391,-3.132 1.392,-4.698c0.001,-1.4 -0.42,-2.658 -1.261,-3.774c-0.842,-1.116 -2.01,-1.912 -3.505,-2.388c-2.278,-0.713 -4.769,-1.071 -7.475,-1.073l-19.792,-0.014l0.005,-6.407Z" style="fill:#888;fill-rule:nonzero;"/><path d="M1497.43,460.187l-5.661,0.922c-0.378,-1.804 -0.567,-3.418 -0.566,-4.842c0.002,-2.326 0.371,-4.129 1.107,-5.41c0.737,-1.281 1.705,-2.182 2.903,-2.703c1.199,-0.522 3.721,-0.781 7.565,-0.778l21.751,0.015l0.003,-4.699l4.984,0.004l-0.004,4.699l9.362,0.006l3.84,6.375l-13.206,-0.009l-0.005,6.443l-4.984,-0.004l0.005,-6.443l-22.106,-0.015c-1.827,-0.002 -3.002,0.11 -3.524,0.335c-0.523,0.225 -0.938,0.593 -1.247,1.103c-0.309,0.51 -0.464,1.239 -0.464,2.189c-0.001,0.712 0.081,1.649 0.247,2.812Z" style="fill:#888;fill-rule:nonzero;"/><path d="M1536.51,466.516l7.369,0.005l-0.005,6.407l-7.368,-0.005l0.004,-6.407Zm-44.817,-0.032l37.805,0.027l-0.005,6.407l-37.804,-0.027l0.004,-6.407Z" style="fill:#888;fill-rule:nonzero;"/><path d="M1502.97,480.09l0.992,6.337c-2.539,0.354 -4.486,1.344 -5.84,2.968c-1.354,1.625 -2.032,3.897 -2.034,6.816c-0.002,2.943 0.596,5.126 1.793,6.551c1.198,1.425 2.603,2.138 4.217,2.139c1.448,0.001 2.587,-0.627 3.419,-1.884c0.57,-0.878 1.295,-3.061 2.176,-6.549c1.19,-4.698 2.218,-7.954 3.086,-9.769c0.867,-1.815 2.067,-3.191 3.598,-4.127c1.531,-0.936 3.223,-1.404 5.074,-1.402c1.685,0.001 3.245,0.388 4.68,1.16c1.435,0.772 2.627,1.823 3.575,3.153c0.735,0.997 1.357,2.356 1.866,4.077c0.509,1.721 0.763,3.566 0.762,5.536c-0.002,2.966 -0.431,5.571 -1.287,7.813c-0.856,2.242 -2.014,3.896 -3.475,4.963c-1.46,1.067 -3.412,1.801 -5.857,2.203l-0.85,-6.266c1.946,-0.283 3.466,-1.107 4.558,-2.471c1.093,-1.363 1.64,-3.291 1.642,-5.783c0.002,-2.943 -0.483,-5.043 -1.455,-6.302c-0.972,-1.258 -2.111,-1.888 -3.416,-1.889c-0.831,0 -1.578,0.26 -2.243,0.782c-0.689,0.521 -1.259,1.34 -1.711,2.455c-0.238,0.64 -0.785,2.527 -1.641,5.659c-1.214,4.531 -2.207,7.693 -2.979,9.484c-0.773,1.791 -1.895,3.197 -3.367,4.216c-1.472,1.02 -3.3,1.528 -5.483,1.527c-2.136,-0.002 -4.147,-0.626 -6.033,-1.873c-1.886,-1.247 -3.344,-3.046 -4.375,-5.396c-1.03,-2.351 -1.544,-5.009 -1.542,-7.975c0.003,-4.913 1.026,-8.656 3.069,-11.229c2.043,-2.574 5.07,-4.215 9.081,-4.924Z" style="fill:#888;fill-rule:nonzero;"/><path d="M1536.47,519.164l7.369,0.006l-0.005,6.407l-7.369,-0.005l0.005,-6.408Zm-44.817,-0.031l37.804,0.026l-0.004,6.408l-37.805,-0.027l0.005,-6.407Z" style="fill:#888;fill-rule:nonzero;"/><path d="M1491.64,535.294l37.805,0.027l-0.004,5.766l-5.375,-0.003c4.151,2.779 6.224,6.791 6.221,12.036c-0.002,2.278 -0.413,4.372 -1.233,6.282c-0.82,1.91 -1.895,3.339 -3.225,4.287c-1.329,0.949 -2.908,1.612 -4.736,1.99c-1.186,0.237 -3.263,0.354 -6.229,0.352l-23.246,-0.017l0.005,-6.407l22.996,0.016c2.611,0.002 4.563,-0.246 5.856,-0.743c1.294,-0.498 2.327,-1.381 3.099,-2.65c0.772,-1.269 1.159,-2.758 1.16,-4.467c0.002,-2.729 -0.862,-5.085 -2.593,-7.068c-1.731,-1.982 -5.017,-2.976 -9.859,-2.979l-20.646,-0.015l0.004,-6.407Z" style="fill:#888;fill-rule:nonzero;"/><path d="M1488.49,574.662l-0.93,6.229c-1.923,0.26 -3.323,0.983 -4.202,2.169c-1.188,1.589 -1.783,3.76 -1.785,6.513c-0.002,2.966 0.59,5.257 1.775,6.871c1.186,1.615 2.846,2.708 4.982,3.279c1.305,0.333 4.046,0.489 8.222,0.469c-3.296,-2.803 -4.943,-6.293 -4.94,-10.47c0.003,-5.197 1.881,-9.218 5.633,-12.063c3.751,-2.845 8.249,-4.266 13.494,-4.262c3.607,0.002 6.935,0.657 9.984,1.965c3.048,1.307 5.402,3.201 7.062,5.682c1.659,2.482 2.488,5.395 2.486,8.741c-0.004,4.462 -1.81,8.139 -5.419,11.032l4.556,0.003l-0.004,5.909l-32.678,-0.023c-5.886,-0.004 -10.056,-0.606 -12.512,-1.807c-2.455,-1.2 -4.394,-3.1 -5.816,-5.699c-1.422,-2.6 -2.131,-5.798 -2.129,-9.595c0.003,-4.509 1.021,-8.151 3.052,-10.927c2.031,-2.775 5.087,-4.113 9.169,-4.016Zm22.707,5.321c-4.96,-0.004 -8.579,0.978 -10.859,2.946c-2.28,1.969 -3.421,4.436 -3.423,7.402c-0.002,2.943 1.13,5.412 3.395,7.407c2.265,1.995 5.818,2.994 10.659,2.998c4.628,0.003 8.117,-1.021 10.468,-3.072c2.351,-2.051 3.527,-4.524 3.529,-7.42c0.002,-2.847 -1.153,-5.269 -3.465,-7.264c-2.313,-1.995 -5.747,-2.994 -10.304,-2.997Z" style="fill:#888;fill-rule:nonzero;"/><path d="M1517.12,655.987c2.492,0.002 4.615,0.888 6.37,2.657c1.755,1.769 2.631,3.888 2.629,6.356c-0.001,2.492 -0.881,4.621 -2.638,6.388c-1.758,1.767 -3.882,2.649 -6.374,2.647c-2.492,-0.001 -4.621,-0.887 -6.388,-2.656c-1.767,-1.769 -2.649,-3.9 -2.647,-6.392c0.001,-2.468 0.887,-4.585 2.656,-6.352c1.769,-1.767 3.9,-2.649 6.392,-2.648Z" style="fill:#888;fill-rule:nonzero;"/><path d="M1491.51,723.747l52.186,0.037l-0.014,19.685c-0.003,3.465 -0.171,6.111 -0.504,7.938c-0.429,2.563 -1.244,4.71 -2.443,6.442c-1.2,1.731 -2.88,3.124 -5.04,4.179c-2.161,1.054 -4.534,1.581 -7.121,1.579c-4.438,-0.003 -8.192,-1.418 -11.264,-4.244c-3.071,-2.827 -4.604,-7.93 -4.599,-15.311l0.01,-13.384l-21.216,-0.015l0.005,-6.906Zm27.369,6.925l-0.009,13.492c-0.004,4.461 0.825,7.63 2.485,9.506c1.66,1.876 3.997,2.815 7.01,2.817c2.184,0.002 4.053,-0.549 5.608,-1.651c1.555,-1.103 2.583,-2.555 3.082,-4.359c0.31,-1.162 0.466,-3.31 0.468,-6.443l0.009,-13.349l-18.653,-0.013Z" style="fill:#888;fill-rule:nonzero;"/><path d="M1491.48,772.48l52.186,0.037l-0.016,23.138c-0.004,4.652 -0.475,8.187 -1.414,10.607c-0.939,2.42 -2.596,4.353 -4.97,5.799c-2.374,1.446 -4.997,2.168 -7.869,2.166c-3.702,-0.003 -6.822,-1.203 -9.359,-3.602c-2.538,-2.399 -4.149,-6.102 -4.834,-11.11c-0.879,1.827 -1.746,3.215 -2.601,4.163c-1.853,2.016 -4.168,3.925 -6.946,5.727l-14.21,9.067l0.007,-8.686l10.862,-6.898c3.134,-2.015 5.532,-3.675 7.194,-4.979c1.662,-1.304 2.826,-2.472 3.491,-3.504c0.665,-1.031 1.129,-2.081 1.391,-3.149c0.166,-0.783 0.25,-2.065 0.251,-3.844l0.006,-8.01l-23.174,-0.016l0.005,-6.906Zm29.15,6.926l-0.011,14.845c-0.002,3.156 0.322,5.624 0.974,7.405c0.651,1.78 1.694,3.133 3.129,4.06c1.435,0.926 2.996,1.39 4.68,1.392c2.469,0.001 4.498,-0.893 6.09,-2.684c1.591,-1.79 2.388,-4.62 2.391,-8.488l0.011,-16.517l-17.264,-0.013Z" style="fill:#888;fill-rule:nonzero;"/></g></g></svg>