<?xml version="1.0" encoding="UTF-8" standalone="no"?><!DOCTYPE svg PUBLIC "-//W3C//DTD SVG 1.1//EN" "http://www.w3.org/Graphics/SVG/1.1/DTD/svg11.dtd"><svg width="100%" height="100%" viewBox="0 0 799 364" version="1.1" xmlns="http://www.w3.org/2000/svg" xmlns:xlink="http://www.w3.org/1999/xlink" xml:space="preserve" xmlns:serif="http://www.serif.com/" style="fill-rule:evenodd;clip-rule:evenodd;stroke-miterlimit:2;"><g><path d="M125.39,51.25c-78.851,33.326 -122.279,79.733 -122.279,130.671c0,50.932 43.43,97.335 122.281,130.664c73.447,31.039 170.662,48.138 273.743,48.138c103.079,0 200.294,-17.099 273.739,-48.138c78.853,-33.329 122.281,-79.732 122.281,-130.664c0,-50.938 -43.428,-97.345 -122.281,-130.671c-73.445,-31.043 -170.66,-48.139 -273.739,-48.139c-103.081,0 -200.296,17.096 -273.745,48.139Z" style="fill:url(#_Linear1);"/><path d="M125.39,51.25c-78.851,33.326 -122.279,79.733 -122.279,130.671c0,50.932 43.43,97.335 122.281,130.664c73.447,31.039 170.662,48.138 273.743,48.138c103.079,0 200.294,-17.099 273.739,-48.138c78.853,-33.329 122.281,-79.732 122.281,-130.664c0,-50.938 -43.428,-97.345 -122.281,-130.671c-73.445,-31.043 -170.66,-48.139 -273.739,-48.139c-103.081,0 -200.296,17.096 -273.745,48.139Z" style="fill:none;stroke:#437b69;stroke-width:2.78px;"/><path d="M775.369,181.921c0,87.823 -168.447,159.014 -376.234,159.014c-207.791,0 -376.24,-71.191 -376.24,-159.014c0,-87.831 168.449,-159.026 376.24,-159.026c207.787,0 376.234,71.195 376.234,159.026Z" style="fill:url(#_Linear2);"/><path d="M775.369,181.921c0,87.823 -168.447,159.014 -376.234,159.014c-207.791,0 -376.24,-71.191 -376.24,-159.014c0,-87.831 168.449,-159.026 376.24,-159.026c207.787,0 376.234,71.195 376.234,159.026Z" style="fill:none;stroke:#437b69;stroke-width:2.78px;"/><clipPath id="_clip3"><path d="M775.456,180.493c0,87.826 -168.445,159.021 -376.236,159.021c-207.789,0 -376.238,-71.195 -376.238,-159.021c0,-87.829 173.391,-159.024 376.238,-159.024c207.791,0 376.236,71.197 376.236,159.024Z"/></clipPath><g clip-path="url(#_clip3)"><clipPath id="_clip4"><path d="M339.128,197.871c0,0 19.621,32.884 25.804,36.087c6.18,3.202 20.086,6.403 20.086,6.403l407.288,0l0,-43.226l-453.178,0.736Z"/></clipPath><g clip-path="url(#_clip4)"><rect x="339.128" y="197.135" width="436.328" height="43.226" style="fill:url(#_Linear5);fill-rule:nonzero;"/></g></g><clipPath id="_clip6"><path d="M775.456,180.493c0,87.826 -168.445,159.021 -376.236,159.021c-207.789,0 -376.238,-71.195 -376.238,-159.021c0,-87.829 173.391,-159.024 376.238,-159.024c207.791,0 376.236,71.197 376.236,159.024Z"/></clipPath><g clip-path="url(#_clip6)"><path d="M83.823,272.952c158.887,-60.283 334.899,-3.304 464.199,10.959c98.01,10.808 159.248,-11.855 179.913,-21.402l1.703,54.521c-20.664,9.551 -184.627,62.278 -282.641,51.466c-129.296,-14.263 -225.923,-2.923 -361.472,-41.023l-1.702,-54.521Z" style="fill:#a95b4f;fill-rule:nonzero;"/></g><path d="M548.044,232.158c1.835,0.271 3.773,0.404 5.81,0.404c2.1,0 3.958,-0.156 5.569,-0.471c1.613,-0.315 2.988,-0.76 4.132,-1.331c1.144,-0.573 2.251,-1.418 3.319,-2.534c1.067,-1.116 1.889,-2.544 2.465,-4.282c0.577,-1.739 0.864,-3.539 0.864,-5.401c0,-2.662 -0.556,-4.948 -1.667,-6.859c-1.108,-1.909 -2.782,-3.374 -5.02,-4.39c-2.235,-1.016 -5.307,-1.525 -9.211,-1.525c-2.055,0 -4.142,0.137 -6.261,0.406c-0.052,0.702 -0.094,1.948 -0.13,3.737l-0.102,3.112l0,8.569l0.078,6.655c0.017,1.018 0.069,2.319 0.154,3.91Zm-7.764,2.345l0,-1.029c0.959,-0.473 1.76,-0.901 2.405,-1.288c0.103,-0.974 0.189,-2.327 0.256,-4.058c0.118,-2.952 0.177,-4.998 0.177,-6.146l0,-8.763c0,-1.403 -0.037,-3.051 -0.114,-4.94c-0.067,-1.19 -0.186,-1.926 -0.353,-2.212c-0.118,-0.187 -0.296,-0.323 -0.532,-0.41c-0.554,-0.202 -1.707,-0.307 -3.461,-0.322l0,-1.361c2.44,0.078 4.594,0.115 6.466,0.115c1.435,0 3.395,-0.024 5.873,-0.072c2.481,-0.047 4.407,-0.073 5.777,-0.073c4.093,0 7.382,0.447 9.872,1.344c2.489,0.894 4.601,2.394 6.34,4.496c1.735,2.106 2.604,4.675 2.604,7.712c0,2.174 -0.409,4.216 -1.227,6.119c-0.818,1.906 -1.928,3.569 -3.329,4.995c-1.404,1.423 -2.905,2.552 -4.509,3.381c-1.604,0.831 -3.285,1.457 -5.046,1.88c-1.761,0.423 -4.177,0.632 -7.249,0.632c-1.019,0 -2.395,-0.022 -4.132,-0.072c-2.271,-0.047 -3.756,-0.073 -4.458,-0.073c-1.018,0 -2.805,0.05 -5.36,0.145Z" style="fill:#933530;fill-rule:nonzero;"/><path d="M548.044,232.158c1.835,0.271 3.773,0.404 5.81,0.404c2.1,0 3.958,-0.156 5.569,-0.471c1.613,-0.315 2.988,-0.76 4.132,-1.331c1.144,-0.573 2.251,-1.418 3.319,-2.534c1.067,-1.116 1.889,-2.544 2.465,-4.282c0.577,-1.739 0.864,-3.539 0.864,-5.401c0,-2.662 -0.556,-4.948 -1.667,-6.859c-1.108,-1.909 -2.782,-3.374 -5.02,-4.39c-2.235,-1.016 -5.307,-1.525 -9.211,-1.525c-2.055,0 -4.142,0.137 -6.261,0.406c-0.052,0.702 -0.094,1.948 -0.13,3.737l-0.102,3.112l0,8.569l0.078,6.655c0.017,1.018 0.069,2.319 0.154,3.91Zm-7.764,2.345l0,-1.029c0.959,-0.473 1.76,-0.901 2.405,-1.288c0.103,-0.974 0.189,-2.327 0.256,-4.058c0.118,-2.952 0.177,-4.998 0.177,-6.146l0,-8.763c0,-1.403 -0.037,-3.051 -0.114,-4.94c-0.067,-1.19 -0.186,-1.926 -0.353,-2.212c-0.118,-0.187 -0.296,-0.323 -0.532,-0.41c-0.554,-0.202 -1.707,-0.307 -3.461,-0.322l0,-1.361c2.44,0.078 4.594,0.115 6.466,0.115c1.435,0 3.395,-0.024 5.873,-0.072c2.481,-0.047 4.407,-0.073 5.777,-0.073c4.093,0 7.382,0.447 9.872,1.344c2.489,0.894 4.601,2.394 6.34,4.496c1.735,2.106 2.604,4.675 2.604,7.712c0,2.174 -0.409,4.216 -1.227,6.119c-0.818,1.906 -1.928,3.569 -3.329,4.995c-1.404,1.423 -2.905,2.552 -4.509,3.381c-1.604,0.831 -3.285,1.457 -5.046,1.88c-1.761,0.423 -4.177,0.632 -7.249,0.632c-1.019,0 -2.395,-0.022 -4.132,-0.072c-2.271,-0.047 -3.756,-0.073 -4.458,-0.073c-1.018,0 -2.805,0.05 -5.36,0.145Z" style="fill:none;stroke:#933530;stroke-width:3.22px;"/><path d="M578.836,205.335l0,-1.361c0.651,0.011 1.643,0.03 2.979,0.054l4.802,0.091c0.951,0 2.428,-0.024 4.431,-0.069c2.6,-0.07 4.111,-0.106 4.527,-0.106c3.186,0 5.509,0.243 6.97,0.733c1.459,0.484 2.59,1.275 3.389,2.371c0.803,1.095 1.203,2.287 1.203,3.576c0,1.203 -0.374,2.397 -1.125,3.587c-0.749,1.188 -1.837,2.176 -3.261,2.964c-1.424,0.786 -3.278,1.396 -5.56,1.824c0.417,0.503 1.402,1.619 2.953,3.35l6.309,7.125c1.793,2 2.84,3.114 3.138,3.344c0.149,0.102 0.299,0.174 0.449,0.215c0.249,0.072 0.797,0.109 1.644,0.109l0,1.361c-1.264,-0.095 -2.369,-0.145 -3.316,-0.145c-0.983,0 -2.186,0.05 -3.615,0.145c-1.085,-1.073 -2.903,-3.17 -5.456,-6.288c-1.418,-1.734 -2.669,-3.18 -3.754,-4.338c-1.752,-1.917 -3.42,-3.658 -5.003,-5.219l0.248,-0.643c0.866,0.043 1.526,0.065 1.974,0.065c3.033,0 5.332,-0.616 6.898,-1.848c1.565,-1.231 2.349,-2.857 2.349,-4.878c0,-1.761 -0.674,-3.162 -2.026,-4.202c-1.351,-1.037 -3.394,-1.556 -6.129,-1.556c-1.718,0 -3.402,0.223 -5.053,0.666c-0.065,0.775 -0.113,1.498 -0.147,2.171c-0.016,0.2 -0.074,2.283 -0.172,6.251l0,9.54c0,1.948 0.039,3.848 0.117,5.696c0.031,1.361 0.144,2.169 0.335,2.427c0.191,0.26 0.504,0.447 0.936,0.571c0.434,0.121 1.63,0.195 3.595,0.224l0,1.361c-2.373,-0.095 -4.551,-0.145 -6.538,-0.145c-1.604,0 -4.3,0.05 -8.091,0.145l0,-1.361c1.964,-0.029 3.161,-0.103 3.595,-0.226c0.432,-0.122 0.73,-0.289 0.897,-0.506c0.199,-0.285 0.325,-0.981 0.375,-2.086c0.018,-0.3 0.057,-2.335 0.116,-6.106l0,-9.959c0,-1.948 -0.029,-3.856 -0.087,-5.721c-0.052,-1.361 -0.172,-2.167 -0.363,-2.417c-0.191,-0.252 -0.499,-0.44 -0.925,-0.56c-0.423,-0.121 -1.628,-0.197 -3.608,-0.226Z" style="fill:#933530;fill-rule:nonzero;"/><path d="M578.836,205.335l0,-1.361c0.651,0.011 1.643,0.03 2.979,0.054l4.802,0.091c0.951,0 2.428,-0.024 4.431,-0.069c2.6,-0.07 4.111,-0.106 4.527,-0.106c3.186,0 5.509,0.243 6.97,0.733c1.459,0.484 2.59,1.275 3.389,2.371c0.803,1.095 1.203,2.287 1.203,3.576c0,1.203 -0.374,2.397 -1.125,3.587c-0.749,1.188 -1.837,2.176 -3.261,2.964c-1.424,0.786 -3.278,1.396 -5.56,1.824c0.417,0.503 1.402,1.619 2.953,3.35l6.309,7.125c1.793,2 2.84,3.114 3.138,3.344c0.149,0.102 0.299,0.174 0.449,0.215c0.249,0.072 0.797,0.109 1.644,0.109l0,1.361c-1.264,-0.095 -2.369,-0.145 -3.316,-0.145c-0.983,0 -2.186,0.05 -3.615,0.145c-1.085,-1.073 -2.903,-3.17 -5.456,-6.288c-1.418,-1.734 -2.669,-3.18 -3.754,-4.338c-1.752,-1.917 -3.42,-3.658 -5.003,-5.219l0.248,-0.643c0.866,0.043 1.526,0.065 1.974,0.065c3.033,0 5.332,-0.616 6.898,-1.848c1.565,-1.231 2.349,-2.857 2.349,-4.878c0,-1.761 -0.674,-3.162 -2.026,-4.202c-1.351,-1.037 -3.394,-1.556 -6.129,-1.556c-1.718,0 -3.402,0.223 -5.053,0.666c-0.065,0.775 -0.113,1.498 -0.147,2.171c-0.016,0.2 -0.074,2.283 -0.172,6.251l0,9.54c0,1.948 0.039,3.848 0.117,5.696c0.031,1.361 0.144,2.169 0.335,2.427c0.191,0.26 0.504,0.447 0.936,0.571c0.434,0.121 1.63,0.195 3.595,0.224l0,1.361c-2.373,-0.095 -4.551,-0.145 -6.538,-0.145c-1.604,0 -4.3,0.05 -8.091,0.145l0,-1.361c1.964,-0.029 3.161,-0.103 3.595,-0.226c0.432,-0.122 0.73,-0.289 0.897,-0.506c0.199,-0.285 0.325,-0.981 0.375,-2.086c0.018,-0.3 0.057,-2.335 0.116,-6.106l0,-9.959c0,-1.948 -0.029,-3.856 -0.087,-5.721c-0.052,-1.361 -0.172,-2.167 -0.363,-2.417c-0.191,-0.252 -0.499,-0.44 -0.925,-0.56c-0.423,-0.121 -1.628,-0.197 -3.608,-0.226Z" style="fill:none;stroke:#933530;stroke-width:3.22px;"/><path d="M612.713,205.335l0,-1.361c2.72,0.096 5.252,0.145 7.59,0.145c2.373,0 4.727,-0.049 7.067,-0.145l0,1.361c-1.965,0.029 -3.161,0.105 -3.595,0.226c-0.432,0.12 -0.723,0.289 -0.873,0.504c-0.217,0.288 -0.35,0.981 -0.399,2.084c-0.02,0.285 -0.057,2.319 -0.116,6.099l0,7.946c0,3.079 0.228,5.109 0.687,6.089c0.458,0.981 1.191,1.793 2.192,2.436c0.767,0.488 1.803,0.879 3.105,1.172c1.301,0.293 2.753,0.439 4.354,0.439c1.871,0 3.532,-0.196 4.985,-0.589c1.452,-0.395 2.54,-0.873 3.267,-1.439c0.725,-0.567 1.268,-1.201 1.628,-1.902c0.359,-0.701 0.619,-1.663 0.775,-2.886c0.159,-1.224 0.239,-2.775 0.239,-4.651l0,-6.615c0,-1.947 -0.039,-3.852 -0.115,-5.712c-0.035,-1.362 -0.147,-2.165 -0.338,-2.417c-0.191,-0.25 -0.502,-0.438 -0.936,-0.558c-0.432,-0.121 -1.631,-0.197 -3.593,-0.226l0,-1.361c2.75,0.096 4.757,0.145 6.025,0.145c1.152,0 3.226,-0.049 6.227,-0.145l0,1.361c-1.979,0.029 -3.183,0.105 -3.605,0.226c-0.427,0.12 -0.721,0.289 -0.888,0.506c-0.199,0.286 -0.323,0.981 -0.373,2.082c-0.018,0.287 -0.054,2.321 -0.104,6.103l0,7.194c0,3.541 -0.289,6.012 -0.864,7.414c-0.576,1.403 -1.633,2.642 -3.168,3.717c-1.153,0.803 -2.634,1.425 -4.447,1.869c-1.81,0.443 -3.817,0.665 -6.023,0.665c-2.57,0 -4.798,-0.259 -6.685,-0.782c-1.887,-0.525 -3.324,-1.213 -4.309,-2.064c-0.986,-0.852 -1.661,-1.722 -2.028,-2.61c-0.467,-1.175 -0.7,-3.144 -0.7,-5.908l0,-9.495c0,-1.949 -0.03,-3.854 -0.088,-5.716c-0.05,-1.36 -0.172,-2.165 -0.363,-2.417c-0.191,-0.25 -0.499,-0.438 -0.923,-0.558c-0.425,-0.121 -1.628,-0.197 -3.608,-0.226Z" style="fill:#933530;fill-rule:nonzero;"/><path d="M612.713,205.335l0,-1.361c2.72,0.096 5.252,0.145 7.59,0.145c2.373,0 4.727,-0.049 7.067,-0.145l0,1.361c-1.965,0.029 -3.161,0.105 -3.595,0.226c-0.432,0.12 -0.723,0.289 -0.873,0.504c-0.217,0.288 -0.35,0.981 -0.399,2.084c-0.02,0.285 -0.057,2.319 -0.116,6.099l0,7.946c0,3.079 0.228,5.109 0.687,6.089c0.458,0.981 1.191,1.793 2.192,2.436c0.767,0.488 1.803,0.879 3.105,1.172c1.301,0.293 2.753,0.439 4.354,0.439c1.871,0 3.532,-0.196 4.985,-0.589c1.452,-0.395 2.54,-0.873 3.267,-1.439c0.725,-0.567 1.268,-1.201 1.628,-1.902c0.359,-0.701 0.619,-1.663 0.775,-2.886c0.159,-1.224 0.239,-2.775 0.239,-4.651l0,-6.615c0,-1.947 -0.039,-3.852 -0.115,-5.712c-0.035,-1.362 -0.147,-2.165 -0.338,-2.417c-0.191,-0.25 -0.502,-0.438 -0.936,-0.558c-0.432,-0.121 -1.631,-0.197 -3.593,-0.226l0,-1.361c2.75,0.096 4.757,0.145 6.025,0.145c1.152,0 3.226,-0.049 6.227,-0.145l0,1.361c-1.979,0.029 -3.183,0.105 -3.605,0.226c-0.427,0.12 -0.721,0.289 -0.888,0.506c-0.199,0.286 -0.323,0.981 -0.373,2.082c-0.018,0.287 -0.054,2.321 -0.104,6.103l0,7.194c0,3.541 -0.289,6.012 -0.864,7.414c-0.576,1.403 -1.633,2.642 -3.168,3.717c-1.153,0.803 -2.634,1.425 -4.447,1.869c-1.81,0.443 -3.817,0.665 -6.023,0.665c-2.57,0 -4.798,-0.259 -6.685,-0.782c-1.887,-0.525 -3.324,-1.213 -4.309,-2.064c-0.986,-0.852 -1.661,-1.722 -2.028,-2.61c-0.467,-1.175 -0.7,-3.144 -0.7,-5.908l0,-9.495c0,-1.949 -0.03,-3.854 -0.088,-5.716c-0.05,-1.36 -0.172,-2.165 -0.363,-2.417c-0.191,-0.25 -0.499,-0.438 -0.923,-0.558c-0.425,-0.121 -1.628,-0.197 -3.608,-0.226Z" style="fill:none;stroke:#933530;stroke-width:3.22px;"/><path d="M687.501,232.823c-2.538,0.785 -4.618,1.313 -6.236,1.584c-2.855,0.471 -5.562,0.704 -8.117,0.704c-3.856,0 -7.289,-0.647 -10.294,-1.941c-3.005,-1.296 -5.326,-3.109 -6.961,-5.441c-1.637,-2.334 -2.456,-5.087 -2.456,-8.266c0,-2.79 0.589,-5.161 1.766,-7.115c1.177,-1.954 2.649,-3.56 4.411,-4.818c1.764,-1.259 3.522,-2.19 5.276,-2.79c2.689,-0.916 6.013,-1.376 9.975,-1.376c1.854,0.015 3.806,0.199 5.851,0.547c2.048,0.352 4.358,0.836 6.929,1.452c-0.248,0.728 -0.441,1.444 -0.574,2.144c-0.134,0.703 -0.308,2.14 -0.525,4.316l-1.535,0l-0.126,-2.443c-0.019,-0.373 -0.033,-0.673 -0.05,-0.901c-0.017,-0.23 -0.126,-0.521 -0.326,-0.879c-0.451,-0.515 -1.17,-0.979 -2.154,-1.392c-1.704,-0.558 -3.113,-0.931 -4.222,-1.116c-1.112,-0.184 -2.436,-0.278 -3.971,-0.278c-3.173,0 -5.921,0.578 -8.244,1.737c-2.321,1.159 -4.078,2.818 -5.274,4.977c-1.194,2.16 -1.791,4.518 -1.791,7.078c0,2.818 0.698,5.352 2.092,7.605c1.394,2.252 3.264,3.974 5.607,5.17c2.347,1.192 5.082,1.791 8.204,1.791c1.468,0 2.892,-0.121 4.269,-0.362c1.377,-0.241 2.542,-0.571 3.495,-0.997c0.153,-0.571 0.231,-1.49 0.231,-2.751l0,-2.388c0,-1.262 -0.076,-1.998 -0.226,-2.215c-0.15,-0.215 -0.554,-0.376 -1.214,-0.482c-0.66,-0.109 -2.173,-0.191 -4.544,-0.248l0,-1.304l7.81,0.145c1.519,0 3.07,-0.048 4.657,-0.145l0.15,1.042l-1.883,0.946c-0.193,1.529 -0.289,2.94 -0.289,4.224c0,1.291 0.096,2.685 0.289,4.186Z" style="fill:#933530;fill-rule:nonzero;"/><path d="M687.501,232.823c-2.538,0.785 -4.618,1.313 -6.236,1.584c-2.855,0.471 -5.562,0.704 -8.117,0.704c-3.856,0 -7.289,-0.647 -10.294,-1.941c-3.005,-1.296 -5.326,-3.109 -6.961,-5.441c-1.637,-2.334 -2.456,-5.087 -2.456,-8.266c0,-2.79 0.589,-5.161 1.766,-7.115c1.177,-1.954 2.649,-3.56 4.411,-4.818c1.764,-1.259 3.522,-2.19 5.276,-2.79c2.689,-0.916 6.013,-1.376 9.975,-1.376c1.854,0.015 3.806,0.199 5.851,0.547c2.048,0.352 4.358,0.836 6.929,1.452c-0.248,0.728 -0.441,1.444 -0.574,2.144c-0.134,0.703 -0.308,2.14 -0.525,4.316l-1.535,0l-0.126,-2.443c-0.019,-0.373 -0.033,-0.673 -0.05,-0.901c-0.017,-0.23 -0.126,-0.521 -0.326,-0.879c-0.451,-0.515 -1.17,-0.979 -2.154,-1.392c-1.704,-0.558 -3.113,-0.931 -4.222,-1.116c-1.112,-0.184 -2.436,-0.278 -3.971,-0.278c-3.173,0 -5.921,0.578 -8.244,1.737c-2.321,1.159 -4.078,2.818 -5.274,4.977c-1.194,2.16 -1.791,4.518 -1.791,7.078c0,2.818 0.698,5.352 2.092,7.605c1.394,2.252 3.264,3.974 5.607,5.17c2.347,1.192 5.082,1.791 8.204,1.791c1.468,0 2.892,-0.121 4.269,-0.362c1.377,-0.241 2.542,-0.571 3.495,-0.997c0.153,-0.571 0.231,-1.49 0.231,-2.751l0,-2.388c0,-1.262 -0.076,-1.998 -0.226,-2.215c-0.15,-0.215 -0.554,-0.376 -1.214,-0.482c-0.66,-0.109 -2.173,-0.191 -4.544,-0.248l0,-1.304l7.81,0.145c1.519,0 3.07,-0.048 4.657,-0.145l0.15,1.042l-1.883,0.946c-0.193,1.529 -0.289,2.94 -0.289,4.224c0,1.291 0.096,2.685 0.289,4.186Z" style="fill:none;stroke:#933530;stroke-width:3.22px;"/><path d="M692.367,233.433c0.261,-1.377 0.415,-3.607 0.464,-6.692l1.681,0c0.082,2.093 0.222,3.328 0.413,3.708c0.193,0.378 0.657,0.784 1.391,1.212c0.736,0.432 1.72,0.814 2.957,1.149c1.236,0.338 2.43,0.507 3.585,0.507c1.687,0 3.24,-0.334 4.659,-1c1.42,-0.667 2.454,-1.538 3.107,-2.621c0.652,-1.081 0.977,-2.238 0.977,-3.468c0,-0.944 -0.163,-1.758 -0.486,-2.444c-0.326,-0.684 -0.823,-1.238 -1.489,-1.659c-0.667,-0.421 -1.494,-0.717 -2.478,-0.888c-0.618,-0.087 -1.85,-0.23 -3.702,-0.43c-1.852,-0.2 -3.428,-0.423 -4.729,-0.666c-1.734,-0.458 -3.011,-0.993 -3.827,-1.609c-0.819,-0.615 -1.481,-1.422 -1.991,-2.425c-0.508,-1.001 -0.764,-2.08 -0.764,-3.238c0,-1.687 0.516,-3.28 1.541,-4.774c1.027,-1.492 2.545,-2.655 4.557,-3.487c2.011,-0.829 4.195,-1.244 6.549,-1.244c1.418,0 2.966,0.161 4.644,0.486c1.68,0.322 3.242,0.793 4.696,1.409c-0.232,0.899 -0.399,1.737 -0.499,2.515c-0.102,0.779 -0.176,1.927 -0.226,3.441l-1.68,0c-0.05,-2.199 -0.126,-3.396 -0.224,-3.596c-0.419,-0.514 -0.988,-0.977 -1.705,-1.391c-1.723,-0.826 -3.521,-1.242 -5.391,-1.242c-2.423,0 -4.359,0.632 -5.805,1.895c-1.446,1.262 -2.169,2.897 -2.169,4.907c0,1.218 0.258,2.158 0.777,2.823c0.515,0.666 1.44,1.198 2.775,1.6c0.918,0.273 2.418,0.525 4.501,0.76c2.084,0.238 3.958,0.492 5.625,0.764c1.565,0.401 2.723,0.877 3.474,1.428c0.749,0.552 1.366,1.273 1.85,2.17c0.484,0.894 0.723,1.943 0.723,3.146c0,2.85 -1.374,5.336 -4.125,7.455c-2.751,2.119 -6.308,3.177 -10.678,3.177c-3.3,0 -6.292,-0.558 -8.978,-1.678Z" style="fill:#933530;fill-rule:nonzero;"/><path d="M692.367,233.433c0.261,-1.377 0.415,-3.607 0.464,-6.692l1.681,0c0.082,2.093 0.222,3.328 0.413,3.708c0.193,0.378 0.657,0.784 1.391,1.212c0.736,0.432 1.72,0.814 2.957,1.149c1.236,0.338 2.43,0.507 3.585,0.507c1.687,0 3.24,-0.334 4.659,-1c1.42,-0.667 2.454,-1.538 3.107,-2.621c0.652,-1.081 0.977,-2.238 0.977,-3.468c0,-0.944 -0.163,-1.758 -0.486,-2.444c-0.326,-0.684 -0.823,-1.238 -1.489,-1.659c-0.667,-0.421 -1.494,-0.717 -2.478,-0.888c-0.618,-0.087 -1.85,-0.23 -3.702,-0.43c-1.852,-0.2 -3.428,-0.423 -4.729,-0.666c-1.734,-0.458 -3.011,-0.993 -3.827,-1.609c-0.819,-0.615 -1.481,-1.422 -1.991,-2.425c-0.508,-1.001 -0.764,-2.08 -0.764,-3.238c0,-1.687 0.516,-3.28 1.541,-4.774c1.027,-1.492 2.545,-2.655 4.557,-3.487c2.011,-0.829 4.195,-1.244 6.549,-1.244c1.418,0 2.966,0.161 4.644,0.486c1.68,0.322 3.242,0.793 4.696,1.409c-0.232,0.899 -0.399,1.737 -0.499,2.515c-0.102,0.779 -0.176,1.927 -0.226,3.441l-1.68,0c-0.05,-2.199 -0.126,-3.396 -0.224,-3.596c-0.419,-0.514 -0.988,-0.977 -1.705,-1.391c-1.723,-0.826 -3.521,-1.242 -5.391,-1.242c-2.423,0 -4.359,0.632 -5.805,1.895c-1.446,1.262 -2.169,2.897 -2.169,4.907c0,1.218 0.258,2.158 0.777,2.823c0.515,0.666 1.44,1.198 2.775,1.6c0.918,0.273 2.418,0.525 4.501,0.76c2.084,0.238 3.958,0.492 5.625,0.764c1.565,0.401 2.723,0.877 3.474,1.428c0.749,0.552 1.366,1.273 1.85,2.17c0.484,0.894 0.723,1.943 0.723,3.146c0,2.85 -1.374,5.336 -4.125,7.455c-2.751,2.119 -6.308,3.177 -10.678,3.177c-3.3,0 -6.292,-0.558 -8.978,-1.678Z" style="fill:none;stroke:#933530;stroke-width:3.22px;"/><path d="M299.799,141.038l0,-18.562c0,0 -0.008,-1.611 -0.008,-1.938c0,-2.992 0.147,-6.071 1.825,-6.788c1.653,-0.768 7.515,-1.428 12.494,0.053c3.805,1.196 8.91,4.624 10.716,10.319c1.147,3.441 1.416,8.824 -1.584,12.738c-3.333,4.644 -7.302,6.525 -13.724,6.525c-2.99,0 -4.679,-0.341 -9.719,-2.347Zm-131.812,-2.265c-8.996,9.601 -26.014,9.445 -39.688,9.323c0,0 -1.889,-0.013 -3.222,-0.023l0,-33.643c0,-12.982 0.12,-14.035 5.281,-16.822c2.879,-1.688 5.864,-1.861 11.998,-1.861l1.591,-0.03c2.662,-0.068 7.117,-0.187 10.756,0.605c8.833,1.513 14.816,7.521 17.841,17.873c1.795,6.368 1.57,18.215 -4.557,24.578Zm9.22,32.883c7.152,9.316 9.17,24.83 4.686,36.076c-3.839,10.713 -11.916,18.516 -22.176,21.452c-9.1,2.629 -20.149,2.108 -34.64,-1.588l0,-71.814c0.263,-0.002 0.613,-0.004 0.613,-0.004c10.613,-0.085 38.81,-0.313 51.517,15.878Zm250.905,-64.326l-0.897,0.102l-5.58,0.441l-2.049,-0.285c-1.351,-0.288 -3.201,-0.679 -6.931,-0.679c-2.707,0 -3.602,0.254 -4.468,0.501l-2.694,0.554l-0.116,1.107l0,3.68l2.415,-0.23c1.717,-0.176 4.067,-0.419 6.236,0.306c4.146,1.24 4.342,10.108 4.342,17.718l0,41.625c-4.234,-4.741 -47,-52.66 -47,-52.66c-9.043,-10.478 -12.864,-12.601 -22.687,-12.601c-0.236,0.007 -4.831,0.156 -7.885,1.17l-0.914,0.302l0,4.388l4.288,-0.856c1.861,-0.286 2.892,-0.101 3.469,0.615l0.078,0.098c0,0 4.645,3.984 5.431,4.659l0,46.5c0,15.869 -1.642,19.797 -2.625,20.724c-2.183,1.97 -3.153,1.865 -6.761,1.488l-1.323,-0.14c-5.797,-10.284 -17.78,-31.06 -23.472,-37.522c6.656,-1.543 12.592,-5.458 16.132,-11.055c2.244,-3.446 3.185,-7.369 3.185,-11.05c0,-3.578 -0.888,-6.93 -2.33,-9.403c-5.936,-10.587 -20.587,-10.127 -29.339,-9.857l-3.316,0.076c-1.986,0 -3.408,0.241 -4.783,0.475c-1.405,0.241 -2.857,0.489 -5.028,0.489l-4.169,-0.43c-2.032,-0.313 -4.336,-0.671 -7.714,-0.671c-1.018,0 -1.715,0.05 -2.245,0.143c-1.006,-0.087 -1.728,-0.026 -3.949,0.178l-1.04,0.094c-0.024,0.002 -1.722,0.188 -1.722,0.188l-4.929,0.361l-1.791,-0.287c-1.355,-0.325 -3.211,-0.771 -7.083,-0.677l-0.013,0c-3.185,0.109 -3.376,0.137 -4.891,0.501l-2.603,0.593l-0.013,1.068l0,3.765l1.539,-0.236c1.969,-0.304 4.878,-0.611 7.386,0.227c4.254,1.273 4.227,10.759 4.204,18.386l-0.003,1.763l0,19.621l0.014,2.621c0.089,10.587 0.182,21.536 -11.647,28.414c-6.796,3.85 -18.279,3.85 -25.06,-0.007c-12.527,-7.295 -12.412,-20.092 -12.328,-29.436l0.014,-2.146l0,-23.353l-0.02,-3.185c-0.056,-6.303 -0.096,-10.854 2.156,-12.261c2.886,-1.804 5.078,-1.743 9.06,-1.192l1.516,0.209l0,-4.722l-1.095,-0.198c-2.789,-0.504 -3.321,-0.454 -6.268,-0.174l-1.691,0.157c-0.024,0.002 -3.893,0.514 -3.893,0.514c-2.163,0.315 -4.034,0.589 -6.073,0.589c-1.324,0 -2.573,-0.28 -4.023,-0.604c-2.099,-0.469 -4.477,-0.999 -7.894,-0.914c-2.931,0.098 -3.134,0.13 -4.113,0.41l-1.187,0.295c-0.954,-2.603 -2.215,-4.958 -3.785,-6.791c-13.077,-16.103 -43.729,-13.212 -55.267,-12.124l-1.546,0.144l-0.856,0.112c-4.348,0.571 -8.102,1.064 -14.631,0.691c-2.414,-0.004 -4.549,-0.304 -7.026,-0.652c-3.24,-0.456 -6.913,-0.97 -12.109,-0.97c-2.918,0 -4.108,0.167 -4.727,0.925c-0.26,0.013 -1.893,0.106 -1.893,0.106l-0.375,0.196l-11.071,7.217l4.492,0c1.123,0 2.84,-0.383 5.015,-0.869c3.693,-0.827 8.753,-1.956 11.495,-1.124c6.706,1.988 6.941,7.104 6.834,18.485l-0.023,3.893l0,91.78l0.023,3.893c0.107,11.381 -0.128,16.495 -6.824,18.481c-2.872,0.871 -6.365,0.278 -9.171,-0.201l-5.247,-0.647l0.163,1.521l0,4.768l1.337,0c2.087,0 2.862,0.193 3.761,0.413c1.157,0.282 2.468,0.601 6.211,0.601c5.185,0 8.783,-0.449 11.959,-0.847c2.432,-0.304 4.533,-0.57 6.88,-0.57c6.879,0 13.432,1.178 13.497,1.189c20.381,1.394 48.096,3.279 67.296,-19.039c6.813,-7.66 9.236,-16.774 9.236,-24.849c0,-4.468 -0.739,-8.617 -1.891,-12.028c-6.688,-18.117 -22.464,-25.245 -39.197,-29.713c11.562,-4.444 22.628,-10.248 27.64,-22.315c1.243,-2.943 1.83,-6.471 1.83,-10.096c0,-2.317 -0.257,-4.669 -0.721,-6.946c2.156,-0.497 4.071,-0.512 5.675,0.024c3.869,1.161 4.002,4.587 3.937,12.23l-0.015,2.668l0,26.116l-0.003,1.452c-0.041,9.744 -0.102,24.467 14.489,32.867c10.219,6.041 28.874,6.512 38.371,0.958c15.326,-8.681 15.242,-23.076 15.177,-34.641l-0.007,-2.158l0,-17.268c0,-4.577 0,-18.501 2.597,-20.841c0.699,-0.63 1.337,-1.055 1.984,-1.353l0,0.521l1.336,-0.208l2.078,-0.296c0.638,-0.136 1.291,-0.266 1.967,-0.319c0.138,0.018 0.258,0.031 0.403,0.052l1.516,0.209l0,-0.104c0.174,0.039 0.343,0.056 0.521,0.115c3.869,1.161 4.002,4.587 3.938,12.226l-0.015,2.672l0,43.941l0.015,2.67c0.064,7.571 -0.069,10.971 -3.929,12.224c-1.557,0.517 -2.784,0.213 -4.086,-0.11l-3.824,-0.626l0.217,1.59l0,3.604c0,0 2.504,0.156 2.521,0.156c0.645,0.428 1.316,0.614 3.513,0.614c3.417,0 5.74,-0.497 7.788,-0.935c1.466,-0.311 2.731,-0.584 4.095,-0.584c1.467,0 2.89,0.273 4.398,0.562c1.746,0.334 3.551,0.677 5.687,0.677l7.415,0l0,-4.928l-3.874,0.147c-2.125,0.126 -3.003,0.18 -5.148,-1.25c-1.945,-1.218 -2.204,-4.662 -2.204,-9.504c0,-0.844 0.007,-1.728 0.014,-2.651l0.021,-3.176l0,-21.671c1.596,0.613 3.706,1.179 6.19,1.625c3.081,2.655 21.721,33.896 28.427,45.571c4.356,7.989 9.61,16.833 15.664,24.51c-2.317,2.918 -8.991,11.314 -8.991,11.314c-2.919,3.626 -4.658,5.085 -6.19,6.264c-1.323,0.964 -1.874,0.918 -4.193,0.714l-1.45,-0.123l0,3.901l4.414,0.039l0.827,-0.03l2.957,-0.224l1.296,-0.121l1.815,0.215l2.525,0.277l3.691,-0.245l1.89,-0.302l0.008,-1.138l0,-2.748l-1.902,0.278c-1.201,0.182 -1.924,0.289 -3.233,-0.087c-0.013,-0.004 -0.454,-0.167 -0.708,-0.259c0.261,-0.827 1.879,-3.011 2.625,-4.003c-0.015,0.02 5.4,-6.859 7.793,-9.901c9.855,11.232 21.625,18.774 34.991,14.908l1.263,-0.365l-1.111,-4.08l-1.29,0.354c-7.293,2.008 -17.33,-7.195 -26.754,-19.745l1.662,-2.084c2.789,-3.495 6.926,-8.685 8.511,-9.844c1.428,-1.097 3.263,-1.442 5.482,-1.036l1.576,0.289l0,-3.971l-1.12,-0.072l-4.21,-0.302l-2.999,0.28l-1.255,0.144l-1.248,-0.156l-3.698,-0.341l-3.76,0.36l-1.209,0.115l-0.013,1.216l0,2.64l2.551,-0.202c0.656,-0.084 1.174,-0.149 2.171,0.118c0.013,0.008 0.161,0.067 0.217,0.084c0.002,0.022 0.007,0.044 0.007,0.068c0,1.12 -2.658,4.498 -3.961,6.153l-1.587,2.049c0.004,-0.004 -0.08,0.1 -0.197,0.248c-4.149,-5.915 -8.101,-12.33 -11.551,-18.54c-0.015,-0.03 -0.159,-0.289 -0.391,-0.712c1.524,0.156 2.944,0.137 4.384,-0.085c3.278,-0.699 4.149,-0.692 5.732,-0.677l0.835,0.004l1.889,0.276c1.342,0.293 3.179,0.692 6.953,0.692c3.684,0 3.827,0 5.729,-0.566l1.542,-0.46l0.004,-0.995l0,-4.206l-1.758,0.585c-1.301,0.434 -4.213,0.761 -6.889,-0.137c-3.943,-1.283 -4.208,-9.473 -4.208,-16.703c0,-0.578 0.006,-3.446 0.006,-3.446l0,-40.469c4.308,4.77 59.836,66.258 59.836,66.258l5.243,0l0,-56.598c0,-15.993 1.644,-19.936 2.625,-20.863c2.441,-2.21 4.175,-1.973 7.05,-1.581l1.518,0.205l0,-4.597l-1.142,-0.341c-1.474,-0.441 -1.995,-0.525 -6.568,0.011Z" style="fill:url(#_Linear7);"/><path d="M518.787,113.242c2.225,-1.389 3.14,-1.346 5.352,-1.246l3.741,0.106l-0.037,-1.372l0,-3.411l-7.415,0c-2.118,0 -3.918,0.308 -5.656,0.604c-1.517,0.26 -2.946,0.504 -4.427,0.504c-1.367,0 -2.629,-0.272 -4.096,-0.584c-2.05,-0.437 -4.375,-0.934 -7.791,-0.934c-2.249,0 -2.974,0.224 -3.658,0.697c-0.061,0.043 -0.065,0.046 -0.065,0.046l-2.343,0.177l-0.1,1.242l0,3.752l1.335,-0.208l2.078,-0.296c1.366,-0.29 2.777,-0.59 4.406,-0.047c3.491,1.022 3.966,3.784 3.966,9.646c0,0.7 -0.008,1.444 -0.019,2.235l-0.022,3.017l0,16.215l-42.651,0l0,-14.695l-0.019,-3.185c-0.011,-0.946 -0.018,-1.854 -0.018,-2.716c0,-4.883 0.257,-8.352 2.172,-9.545c2.132,-1.393 3.07,-1.348 5.345,-1.248l3.747,0.106l-0.036,-1.372l0,-3.411l-7.552,0c-2.036,0 -3.795,0.304 -5.501,0.597c-1.518,0.263 -2.955,0.511 -4.447,0.511c-1.368,0 -2.66,-0.272 -4.16,-0.585c-2.085,-0.436 -4.449,-0.933 -7.864,-0.933c-2.187,0 -2.886,0.228 -3.552,0.71c-0.037,0.028 -0.042,0.033 -0.042,0.035c-0.004,0.002 -2.336,0.175 -2.336,0.175l-0.102,1.242l0,3.752l1.336,-0.208l2.079,-0.296c1.368,-0.29 2.784,-0.59 4.41,-0.047c3.867,1.161 4,4.587 3.935,12.234l-0.014,2.664l0,43.941l0.014,2.664c0.065,7.573 -0.068,10.977 -3.924,12.23c-1.557,0.517 -2.788,0.213 -4.088,-0.11l-3.824,-0.626l0.217,1.59l0,3.604c0,0 2.426,0.154 2.445,0.154c0.647,0.43 1.307,0.616 3.446,0.616c3.415,0 5.779,-0.493 7.864,-0.931c1.5,-0.315 2.792,-0.588 4.16,-0.588c1.481,0 2.909,0.28 4.422,0.569c1.709,0.33 3.475,0.67 5.526,0.67l7.552,0l0,-4.924l-3.882,0.143c-2.18,0.126 -3.084,0.183 -5.12,-1.235c-1.965,-1.233 -2.226,-4.674 -2.226,-9.519c0,-0.84 0.007,-1.723 0.018,-2.644l0.019,-3.183l0,-19.671l42.651,0l0,21.191l0.022,3.014c0.011,0.783 0.019,1.517 0.019,2.208c0,5.816 -0.471,8.567 -3.947,9.668c-1.568,0.521 -2.799,0.217 -4.099,-0.106l-3.819,-0.626l0.217,1.59l0,3.604c0,0 2.501,0.156 2.519,0.156c0.646,0.428 1.315,0.614 3.51,0.614c3.416,0 5.741,-0.497 7.791,-0.935c1.467,-0.311 2.729,-0.584 4.096,-0.584c1.47,0 2.892,0.277 4.402,0.562c1.745,0.334 3.549,0.677 5.681,0.677l7.415,0l0,-4.928l-3.875,0.147c-2.124,0.126 -3.008,0.18 -5.148,-1.25c-2.28,-1.431 -2.241,-5.93 -2.187,-12.161l0.018,-3.17l0,-40.901l-0.018,-3.17c-0.054,-6.311 -0.097,-10.869 2.154,-12.278Z" style="fill:url(#_Linear8);"/><path d="M558.848,148.498c1.053,-2.755 6.676,-17.441 8.441,-22.059c1.805,4.603 7.576,19.289 8.663,22.059l-17.104,0Zm48.819,37.203c-3.368,-0.584 -3.961,-1.094 -6.963,-8.593c-0.004,-0.011 -28.947,-70.199 -28.947,-70.199l-3.469,0l-23.681,61.926c-5.116,13.707 -7.845,16.478 -9.019,16.908c-2.208,0.859 -3.29,0.746 -5.611,0.228l-1.622,-0.361l0,4.84l1.082,0.206c2.523,0.482 2.788,0.475 5.449,0.206l1.974,-0.187c0.017,-0.004 3.085,-0.388 3.085,-0.388l2.317,-0.163l1.437,0.271c1.086,0.333 2.575,0.793 6.47,0.699c2.473,-0.088 2.76,-0.119 3.411,-0.388l2.651,-0.741l0.076,-1.033l0,-4.154l-1.815,0.698c-1.578,0.609 -4.711,1.061 -6.869,-0.185c-0.567,-0.348 -0.858,-1.086 -0.858,-2.249c0,-2.18 1.014,-5.861 3.103,-11.317c0,0 5.219,-13.68 6.58,-17.243l21.817,0c0.62,1.478 6.428,15.348 6.428,15.348c-0.017,-0.05 1.496,3.886 1.496,3.886c2.031,5.203 3.498,8.965 2.146,10.656c-1.067,1.451 -3.798,1.98 -6.672,1.321l-1.629,-0.372l0,5.176l2.501,0.369c1.766,0.272 2.219,0.315 5.96,0.087c0.057,-0.008 3.704,-0.566 3.704,-0.566c1.177,-0.231 2.024,-0.396 3.813,-0.396c1.311,0 2.143,0.191 3.2,0.437c1.529,0.35 3.263,0.749 6.779,0.666c2.701,-0.093 2.994,-0.123 3.936,-0.408l2.71,-0.714l0.045,-1.04l0,-3.993l-1.709,0.5c-0.562,0.164 -2.245,0.529 -3.306,0.262Z" style="fill:url(#_Linear9);"/><path d="M715.74,185.504c-1.442,0.657 -3.153,1.272 -5.233,0.286c-4.116,-1.546 -5.343,-8.493 -6.014,-15.094l-4.837,-47.805c-0.417,-4.766 0.039,-7.412 1.535,-8.824c1.452,-1.376 4.114,-1.763 8.141,-1.187l1.52,0.217l0,-5.076l-2.256,-0.265c-11.09,-1.303 -17.782,-2.089 -22.977,11.333c0.013,-0.032 -15.993,37.544 -20.574,48.298c-2.158,-5.2 -19.643,-47.36 -19.643,-47.36c0.015,0.037 -0.604,-1.619 -0.604,-1.619c-2.288,-6.169 -4.266,-11.499 -12.929,-11.499c-3.912,0 -5.652,0.343 -8.292,0.862l-3.943,0.742l-0.019,1.112l0,3.582l2.796,-0.349c2.983,-0.387 4.353,-0.495 5.524,0.931c2.093,2.408 1.641,7.482 1.242,11.959l-0.159,1.868c-0.004,0.03 -2.349,40.24 -2.349,40.24c-0.584,11.165 -2.556,15.125 -4.11,16.479c-2.731,2.137 -4.206,2.146 -8.057,1.618l-1.516,-0.21l0,4.765l1.843,0.254c2.215,0.311 2.339,0.3 5.481,0.007l1.04,-0.094c0.021,-0.004 1.854,-0.204 1.854,-0.204l4.798,-0.347l1.954,0.304c1.348,0.323 3.198,0.756 6.92,0.666c2.766,-0.093 3.059,-0.123 3.954,-0.405l2.69,-0.721l0.047,-1.036l0,-3.785l-1.569,0.259c-1.603,0.265 -3.8,0.63 -6.238,-0.217c-2.204,-0.803 -2.693,-5.433 -2.693,-10.593c0,-2.187 0.09,-4.467 0.17,-6.597l0.104,-2.93c0,0 1.314,-25.697 1.913,-37.441c3.812,8.954 25.507,59.897 25.507,59.897l3.422,-0.58c0,0 20.989,-50.367 24.48,-58.75c0.794,8.348 3.919,41.246 3.919,41.246c-0.004,-0.041 0.325,4.277 0.325,4.277c0.47,5.672 0.812,9.769 -1.228,11.045c-2.704,1.69 -3.388,1.618 -6.679,1.262l-2.238,-0.235l0.004,4.653l1.885,0.369c1.428,0.282 1.569,0.289 3.028,0.118l2.48,-0.255c0.022,-0.004 3.921,-0.516 3.921,-0.516c2.154,-0.313 4.012,-0.586 6.047,-0.586c1.311,0 2.534,0.279 3.947,0.597c2.089,0.475 4.453,1.007 7.966,0.924c0.013,0 1.73,-0.047 1.73,-0.047l1.701,-0.341l2.071,-0.847l0.084,-0.927l0,-4.286l-1.886,0.858Z" style="fill:url(#_Linear10);"/><path d="M258.996,184.114c-8.98,5.25 -27.22,4.837 -37.03,-0.962c-14.648,-8.433 -13.817,-23.629 -13.817,-33.167l0,-26.115c0,-8.843 0.69,-14.506 -4.837,-16.164c-2.901,-0.967 -5.939,-0.276 -7.738,0.275l0,-2.208c3.18,-0.692 1.522,-0.692 5.666,-0.829c5.665,-0.139 8.429,1.516 11.885,1.516c3.314,0 6.215,-0.687 10.084,-1.104c4.559,-0.412 4.559,-0.551 7.601,0l0,2.074c-4.008,-0.552 -6.633,-0.691 -9.949,1.385c-3.319,2.071 -2.764,8.149 -2.764,16.575l0,23.355c0,9.528 -1.243,24.454 12.989,32.744c7.045,4.004 19.067,4.145 26.39,0c13.54,-7.873 12.298,-21.002 12.298,-32.192l0,-19.621c0,-8.982 0.413,-19.762 -5.115,-21.415c-2.901,-0.968 -6.216,-0.555 -8.012,-0.28l0,-2.208c3.178,-0.692 2.212,-0.692 6.218,-0.829c5.804,-0.139 6.77,0.966 8.841,0.966c2.074,0 2.903,-0.137 6.772,-0.554c4.56,-0.412 3.871,-0.412 6.909,0l0,2.074c-4.008,-0.552 -6.08,-0.552 -8.845,1.934c-2.762,2.487 -3.038,13.264 -3.038,21.834l0,17.267c0,11.608 1.105,26.804 -14.508,35.649Z" style="fill:#fff;fill-rule:nonzero;"/><path d="M258.996,184.114c-8.98,5.25 -27.22,4.837 -37.03,-0.962c-14.648,-8.433 -13.817,-23.629 -13.817,-33.167l0,-26.115c0,-8.843 0.69,-14.506 -4.837,-16.164c-2.901,-0.967 -5.939,-0.276 -7.738,0.275l0,-2.208c3.18,-0.692 1.522,-0.692 5.666,-0.829c5.665,-0.139 8.429,1.516 11.885,1.516c3.314,0 6.215,-0.687 10.084,-1.104c4.559,-0.412 4.559,-0.551 7.601,0l0,2.074c-4.008,-0.552 -6.633,-0.691 -9.949,1.385c-3.319,2.071 -2.764,8.149 -2.764,16.575l0,23.355c0,9.528 -1.243,24.454 12.989,32.744c7.045,4.004 19.067,4.145 26.39,0c13.54,-7.873 12.298,-21.002 12.298,-32.192l0,-19.621c0,-8.982 0.413,-19.762 -5.115,-21.415c-2.901,-0.968 -6.216,-0.555 -8.012,-0.28l0,-2.208c3.178,-0.692 2.212,-0.692 6.218,-0.829c5.804,-0.139 6.77,0.966 8.841,0.966c2.074,0 2.903,-0.137 6.772,-0.554c4.56,-0.412 3.871,-0.412 6.909,0l0,2.074c-4.008,-0.552 -6.08,-0.552 -8.845,1.934c-2.762,2.487 -3.038,13.264 -3.038,21.834l0,17.267c0,11.608 1.105,26.804 -14.508,35.649Z" style="fill:none;stroke:#fff;stroke-width:1.94px;"/><path d="M320.273,144.319c6.356,-0.824 13.403,-4.284 17.685,-11.05c3.869,-5.942 3.732,-14.093 0.829,-19.071c-6.355,-11.33 -23.764,-9.117 -31.502,-9.117c-3.871,0 -5.389,0.962 -9.811,0.962c-3.455,0 -6.079,-1.099 -11.883,-1.099c-4.143,0 -1.794,0.829 -4.835,0.829l0,2.208c1.658,0 4.006,-1.242 6.908,-0.275c5.528,1.658 4.836,7.321 4.836,16.164l0,43.941c0,8.845 0.692,14.369 -4.836,16.166c-2.902,0.966 -4.972,-0.417 -6.771,-0.417l0,2.354c3.178,0 0.555,0.688 4.698,0.688c5.804,0 8.428,-1.517 11.883,-1.517c3.317,0 6.218,1.239 10.087,1.239l6.079,0l0,-2.21c-4.007,0 -5.113,0.829 -8.428,-1.379c-3.316,-2.075 -2.764,-8.016 -2.764,-16.446l0,-23.766c1.244,0.832 4.145,1.796 8.153,2.488c3.315,2.349 25.227,39.65 28.957,46.146c10.778,19.758 29.367,49.252 52.302,42.619l-0.413,-1.522c-15.063,4.144 -36.689,-31.98 -42.907,-43.17c-4.145,-7.74 -24.677,-43.656 -28.267,-44.765Zm-6.771,-2.901c-3.455,0 -5.25,-0.411 -11.054,-2.762l0,-19.48c0,-4.012 -0.276,-8.708 2.625,-9.953c2.073,-0.962 8.288,-1.517 13.401,0c4.837,1.524 9.813,5.53 11.607,11.195c1.383,4.147 1.383,9.809 -1.794,13.956c-3.869,5.387 -8.567,7.044 -14.785,7.044Z" style="fill:#fff;fill-rule:nonzero;"/><path d="M320.273,144.319c6.356,-0.824 13.403,-4.284 17.685,-11.05c3.869,-5.942 3.732,-14.093 0.829,-19.071c-6.355,-11.33 -23.764,-9.117 -31.502,-9.117c-3.871,0 -5.389,0.962 -9.811,0.962c-3.455,0 -6.079,-1.099 -11.883,-1.099c-4.143,0 -1.794,0.829 -4.835,0.829l0,2.208c1.658,0 4.006,-1.242 6.908,-0.275c5.528,1.658 4.836,7.321 4.836,16.164l0,43.941c0,8.845 0.692,14.369 -4.836,16.166c-2.902,0.966 -4.972,-0.417 -6.771,-0.417l0,2.354c3.178,0 0.555,0.688 4.698,0.688c5.804,0 8.428,-1.517 11.883,-1.517c3.317,0 6.218,1.239 10.087,1.239l6.079,0l0,-2.21c-4.007,0 -5.113,0.829 -8.428,-1.379c-3.316,-2.075 -2.764,-8.016 -2.764,-16.446l0,-23.766c1.244,0.832 4.145,1.796 8.153,2.488c3.315,2.349 25.227,39.65 28.957,46.146c10.778,19.758 29.367,49.252 52.302,42.619l-0.413,-1.522c-15.063,4.144 -36.689,-31.98 -42.907,-43.17c-4.145,-7.74 -24.677,-43.656 -28.267,-44.765Zm-6.771,-2.901c-3.455,0 -5.25,-0.411 -11.054,-2.762l0,-19.48c0,-4.012 -0.276,-8.708 2.625,-9.953c2.073,-0.962 8.288,-1.517 13.401,0c4.837,1.524 9.813,5.53 11.607,11.195c1.383,4.147 1.383,9.809 -1.794,13.956c-3.869,5.387 -8.567,7.044 -14.785,7.044Z" style="fill:none;stroke:#fff;stroke-width:1.94px;"/><path d="M423.687,129.676c0,-8.982 0.278,-19.762 -5.25,-21.415c-2.905,-0.968 -5.942,-0.418 -7.738,-0.28l0,-2.208c2.349,-0.277 1.937,-0.829 5.942,-0.829c5.804,0 6.77,0.966 8.98,0.966c2.07,0 3.038,-0.137 6.634,-0.554c4.696,-0.551 4.833,-0.412 6.216,0l0,2.074c-3.036,-0.415 -5.25,-0.691 -8.149,1.934c-2.631,2.487 -3.044,13.264 -3.044,21.834l0,55.267l-3.313,0l-61.764,-68.396l0,43.938c0,8.841 -0.414,19.619 5.113,21.415c2.899,0.972 6.08,0.692 7.734,0.138l0,2.354c-2.345,0.688 -1.934,0.688 -5.938,0.688c-5.802,0 -6.772,-0.968 -8.845,-0.968c-2.209,0 -2.901,-0.141 -6.77,0.69c-1.796,0.278 -3.73,0.278 -6.355,-0.277l0,-2.07c4.008,0.417 5.527,0.691 8.291,-1.797c2.625,-2.487 3.04,-13.266 3.04,-21.693l0,-47.115l-5.804,-4.974c-1.105,-1.383 -2.902,-1.383 -4.698,-1.105c-0.968,0.137 -2.764,0.55 -2.764,0.55l0,-1.8c2.901,-0.962 7.462,-1.099 7.462,-1.099c9.534,0 12.987,2.071 21.693,12.157l49.327,55.269l0,-42.694Z" style="fill:#fff;fill-rule:nonzero;"/><path d="M423.687,129.676c0,-8.982 0.278,-19.762 -5.25,-21.415c-2.905,-0.968 -5.942,-0.418 -7.738,-0.28l0,-2.208c2.349,-0.277 1.937,-0.829 5.942,-0.829c5.804,0 6.77,0.966 8.98,0.966c2.07,0 3.038,-0.137 6.634,-0.554c4.696,-0.551 4.833,-0.412 6.216,0l0,2.074c-3.036,-0.415 -5.25,-0.691 -8.149,1.934c-2.631,2.487 -3.044,13.264 -3.044,21.834l0,55.267l-3.313,0l-61.764,-68.396l0,43.938c0,8.841 -0.414,19.619 5.113,21.415c2.899,0.972 6.08,0.692 7.734,0.138l0,2.354c-2.345,0.688 -1.934,0.688 -5.938,0.688c-5.802,0 -6.772,-0.968 -8.845,-0.968c-2.209,0 -2.901,-0.141 -6.77,0.69c-1.796,0.278 -3.73,0.278 -6.355,-0.277l0,-2.07c4.008,0.417 5.527,0.691 8.291,-1.797c2.625,-2.487 3.04,-13.266 3.04,-21.693l0,-47.115l-5.804,-4.974c-1.105,-1.383 -2.902,-1.383 -4.698,-1.105c-0.968,0.137 -2.764,0.55 -2.764,0.55l0,-1.8c2.901,-0.962 7.462,-1.099 7.462,-1.099c9.534,0 12.987,2.071 21.693,12.157l49.327,55.269l0,-42.694Z" style="fill:none;stroke:#fff;stroke-width:1.94px;"/><path d="M509.356,141.418l0,-17.548c0,-8.843 0.829,-14.506 -4.838,-16.164c-2.903,-0.967 -5.246,0.275 -6.907,0.275l0,-2.208c3.036,0 0.691,-0.829 4.832,-0.829c5.805,0 8.43,1.516 11.884,1.516c3.32,0 6.221,-1.104 10.088,-1.104l6.079,0l0,2.074c-4.004,0 -5.113,-0.691 -8.43,1.385c-3.312,2.071 -2.762,8.149 -2.762,16.575l0,40.899c0,8.43 -0.55,14.371 2.762,16.446c3.317,2.208 4.426,1.379 8.43,1.379l0,2.21l-6.079,0c-3.867,0 -6.768,-1.239 -10.088,-1.239c-3.454,0 -6.079,1.517 -11.884,1.517c-4.141,0 -1.516,-0.688 -4.695,-0.688l0,-2.354c1.796,0 3.867,1.383 6.77,0.417c5.667,-1.797 4.838,-7.321 4.838,-16.166l0,-22.526l-45.322,0l0,21.004c0,8.43 -0.553,14.371 2.764,16.446c3.174,2.208 4.423,1.379 8.427,1.379l0,2.21l-6.219,0c-3.73,0 -6.629,-1.239 -9.946,-1.239c-3.457,0 -6.218,1.517 -12.022,1.517c-4.004,0 -1.52,-0.688 -4.559,-0.688l0,-2.354c1.797,0 3.871,1.383 6.772,0.417c5.525,-1.797 4.833,-7.321 4.833,-16.166l0,-43.941c0,-8.843 0.692,-14.506 -4.833,-16.164c-2.901,-0.967 -5.25,0.275 -6.913,0.275l0,-2.208c3.046,0 0.696,-0.829 4.7,-0.829c5.804,0 8.565,1.516 12.022,1.516c3.317,0 6.216,-1.104 9.946,-1.104l6.219,0l0,2.074c-4.004,0 -5.253,-0.691 -8.427,1.385c-3.317,2.071 -2.764,8.149 -2.764,16.575l0,16.028l45.322,0Z" style="fill:#fff;fill-rule:nonzero;"/><path d="M509.356,141.418l0,-17.548c0,-8.843 0.829,-14.506 -4.838,-16.164c-2.903,-0.967 -5.246,0.275 -6.907,0.275l0,-2.208c3.036,0 0.691,-0.829 4.832,-0.829c5.805,0 8.43,1.516 11.884,1.516c3.32,0 6.221,-1.104 10.088,-1.104l6.079,0l0,2.074c-4.004,0 -5.113,-0.691 -8.43,1.385c-3.312,2.071 -2.762,8.149 -2.762,16.575l0,40.899c0,8.43 -0.55,14.371 2.762,16.446c3.317,2.208 4.426,1.379 8.43,1.379l0,2.21l-6.079,0c-3.867,0 -6.768,-1.239 -10.088,-1.239c-3.454,0 -6.079,1.517 -11.884,1.517c-4.141,0 -1.516,-0.688 -4.695,-0.688l0,-2.354c1.796,0 3.867,1.383 6.77,0.417c5.667,-1.797 4.838,-7.321 4.838,-16.166l0,-22.526l-45.322,0l0,21.004c0,8.43 -0.553,14.371 2.764,16.446c3.174,2.208 4.423,1.379 8.427,1.379l0,2.21l-6.219,0c-3.73,0 -6.629,-1.239 -9.946,-1.239c-3.457,0 -6.218,1.517 -12.022,1.517c-4.004,0 -1.52,-0.688 -4.559,-0.688l0,-2.354c1.797,0 3.871,1.383 6.772,0.417c5.525,-1.797 4.833,-7.321 4.833,-16.166l0,-43.941c0,-8.843 0.692,-14.506 -4.833,-16.164c-2.901,-0.967 -5.25,0.275 -6.913,0.275l0,-2.208c3.046,0 0.696,-0.829 4.7,-0.829c5.804,0 8.565,1.516 12.022,1.516c3.317,0 6.216,-1.104 9.946,-1.104l6.219,0l0,2.074c-4.004,0 -5.253,-0.691 -8.427,1.385c-3.317,2.071 -2.764,8.149 -2.764,16.575l0,16.028l45.322,0Z" style="fill:none;stroke:#fff;stroke-width:1.94px;"/><path d="M603.448,174.307l-28.599,-69.363l-1.659,0l-23.351,61.071c-3.866,10.363 -7.184,16.72 -9.809,17.684c-2.486,0.969 -3.869,0.832 -6.357,0.278l0,2.07c2.9,0.555 2.488,0.418 7.05,0c3.866,-0.413 3.313,-0.554 5.525,-0.554c2.074,0 2.074,1.109 7.875,0.972c4.008,-0.141 1.659,-0.141 4.833,-0.831l0,-2.212c-1.791,0.692 -5.384,1.246 -8.012,-0.27c-2.485,-1.526 -1.934,-5.805 1.662,-15.204l6.904,-18.1l23.629,0l6.772,16.167c3.04,8.149 5.662,13.123 3.454,15.891c-1.52,2.071 -4.976,2.488 -8.012,1.793l0,2.348c3.036,0.418 2.487,0.555 7.046,0.277c3.865,-0.41 4.279,-0.964 7.595,-0.964c3.454,0 4.147,1.242 9.95,1.105c4.006,-0.141 2.35,-0.141 5.389,-0.831l0,-2.212c0,0 -2.347,0.692 -4.006,0.277c-4.008,-0.69 -4.837,-1.793 -7.879,-9.392Zm-42.555,-27.776l10.363,-27.083l10.639,27.083l-21.002,0Z" style="fill:#fff;fill-rule:nonzero;"/><path d="M603.448,174.307l-28.599,-69.363l-1.659,0l-23.351,61.071c-3.866,10.363 -7.184,16.72 -9.809,17.684c-2.486,0.969 -3.869,0.832 -6.357,0.278l0,2.07c2.9,0.555 2.488,0.418 7.05,0c3.866,-0.413 3.313,-0.554 5.525,-0.554c2.074,0 2.074,1.109 7.875,0.972c4.008,-0.141 1.659,-0.141 4.833,-0.831l0,-2.212c-1.791,0.692 -5.384,1.246 -8.012,-0.27c-2.485,-1.526 -1.934,-5.805 1.662,-15.204l6.904,-18.1l23.629,0l6.772,16.167c3.04,8.149 5.662,13.123 3.454,15.891c-1.52,2.071 -4.976,2.488 -8.012,1.793l0,2.348c3.036,0.418 2.487,0.555 7.046,0.277c3.865,-0.41 4.279,-0.964 7.595,-0.964c3.454,0 4.147,1.242 9.95,1.105c4.006,-0.141 2.35,-0.141 5.389,-0.831l0,-2.212c0,0 -2.347,0.692 -4.006,0.277c-4.008,-0.69 -4.837,-1.793 -7.879,-9.392Zm-42.555,-27.776l10.363,-27.083l10.639,27.083l-21.002,0Z" style="fill:none;stroke:#fff;stroke-width:1.94px;"/><path d="M713.918,183.699c2.625,1.244 4.838,0.415 6.359,-0.277l0,2.212c-2.903,0.968 -0.138,0.69 -4.285,0.831c-5.802,0.137 -8.427,-1.522 -11.883,-1.522c-3.316,0 -6.216,0.691 -10.086,1.104c-4.559,0.418 -3.039,0.555 -5.938,0l0,-2.07c4.008,0.417 4.974,0.691 8.286,-1.38c3.319,-2.076 2.073,-8.019 1.522,-16.582l-4.421,-46.567l-26.254,63.009l-1.655,0.278l-27.361,-64.251l-2.21,43.243c-0.278,8.984 -1.242,19.762 3.313,21.425c2.766,0.962 5.254,0.547 6.913,0.27l0,2.212c-3.042,0.69 -1.242,0.69 -5.388,0.831c-5.667,0.137 -6.634,-0.972 -8.846,-0.972c-2.071,0 -2.899,0.141 -6.77,0.554c-4.559,0.418 -3.867,0.418 -6.909,0l0,-2.07c4.007,0.554 5.941,0.554 9.117,-1.934c2.215,-1.933 4.008,-6.774 4.562,-17.407l2.351,-40.214c0.415,-5.246 1.379,-11.603 -1.383,-14.782c-1.934,-2.347 -4.422,-1.659 -8.018,-1.242l0,-2.071c4.703,-0.831 5.945,-1.383 10.921,-1.383c8.425,0 9.671,5.387 12.3,12.295l20.859,50.292l21.833,-51.258c4.976,-12.851 10.774,-11.746 22.656,-10.363l0,2.351c-10.636,-1.522 -11.882,3.59 -11.188,11.466l4.836,47.804c0.829,8.159 2.347,14.512 6.767,16.168Z" style="fill:#fff;fill-rule:nonzero;"/><path d="M713.918,183.699c2.625,1.244 4.838,0.415 6.359,-0.277l0,2.212c-2.903,0.968 -0.138,0.69 -4.285,0.831c-5.802,0.137 -8.427,-1.522 -11.883,-1.522c-3.316,0 -6.216,0.691 -10.086,1.104c-4.559,0.418 -3.039,0.555 -5.938,0l0,-2.07c4.008,0.417 4.974,0.691 8.286,-1.38c3.319,-2.076 2.073,-8.019 1.522,-16.582l-4.421,-46.567l-26.254,63.009l-1.655,0.278l-27.361,-64.251l-2.21,43.243c-0.278,8.984 -1.242,19.762 3.313,21.425c2.766,0.962 5.254,0.547 6.913,0.27l0,2.212c-3.042,0.69 -1.242,0.69 -5.388,0.831c-5.667,0.137 -6.634,-0.972 -8.846,-0.972c-2.071,0 -2.899,0.141 -6.77,0.554c-4.559,0.418 -3.867,0.418 -6.909,0l0,-2.07c4.007,0.554 5.941,0.554 9.117,-1.934c2.215,-1.933 4.008,-6.774 4.562,-17.407l2.351,-40.214c0.415,-5.246 1.379,-11.603 -1.383,-14.782c-1.934,-2.347 -4.422,-1.659 -8.018,-1.242l0,-2.071c4.703,-0.831 5.945,-1.383 10.921,-1.383c8.425,0 9.671,5.387 12.3,12.295l20.859,50.292l21.833,-51.258c4.976,-12.851 10.774,-11.746 22.656,-10.363l0,2.351c-10.636,-1.522 -11.882,3.59 -11.188,11.466l4.836,47.804c0.829,8.159 2.347,14.512 6.767,16.168Z" style="fill:none;stroke:#fff;stroke-width:1.94px;"/><path d="M348.377,229.249c-3.647,4.867 -3.819,5.641 -1.215,6.348c1.736,0.497 2.69,0.283 4.166,0.068l0,1.204c-1.824,0.281 -1.735,0.35 -4.253,0.35c-1.477,0 -3.038,-0.491 -4.341,-0.491c-1.387,0 -1.823,0.346 -4.253,0.346c-0.953,0 -1.909,0.145 -3.904,0l0,-1.121c2.43,0.209 3.383,0.278 5.122,-0.99c1.648,-1.27 3.468,-2.824 6.422,-6.489l9.808,-12.346l3.473,-4.655l3.123,-3.943c2.952,-3.955 8.159,-9.523 4.601,-10.439c-1.824,-0.497 -2.517,-0.073 -3.733,-0.073l0,-1.199c1.477,-0.213 2.428,-0.354 3.646,-0.354c2.863,0 3.645,0.495 4.946,0.495c1.391,0 1.825,-0.423 4.255,-0.423c2.082,0 2.256,0 3.993,0.282l0,1.127c-2.69,-0.493 -4.863,0 -6.509,1.27c-1.739,1.272 -5.73,6.279 -8.767,10.089l-3.995,5.007l-3.644,4.579l-8.941,11.358Z" style="fill:#fff;fill-rule:nonzero;"/><path d="M348.377,229.249c-3.647,4.867 -3.819,5.641 -1.215,6.348c1.736,0.497 2.69,0.283 4.166,0.068l0,1.204c-1.824,0.281 -1.735,0.35 -4.253,0.35c-1.477,0 -3.038,-0.491 -4.341,-0.491c-1.387,0 -1.823,0.346 -4.253,0.346c-0.953,0 -1.909,0.145 -3.904,0l0,-1.121c2.43,0.209 3.383,0.278 5.122,-0.99c1.648,-1.27 3.468,-2.824 6.422,-6.489l9.808,-12.346l3.473,-4.655l3.123,-3.943c2.952,-3.955 8.159,-9.523 4.601,-10.439c-1.824,-0.497 -2.517,-0.073 -3.733,-0.073l0,-1.199c1.477,-0.213 2.428,-0.354 3.646,-0.354c2.863,0 3.645,0.495 4.946,0.495c1.391,0 1.825,-0.423 4.255,-0.423c2.082,0 2.256,0 3.993,0.282l0,1.127c-2.69,-0.493 -4.863,0 -6.509,1.27c-1.739,1.272 -5.73,6.279 -8.767,10.089l-3.995,5.007l-3.644,4.579l-8.941,11.358Z" style="fill:none;stroke:#fff;stroke-width:2.31px;"/><path d="M146.34,91.113c2.215,0 7.977,-0.406 12.63,0.604c10.639,1.82 16.181,9.707 18.839,18.805c1.995,7.076 1.552,19.202 -4.876,25.874c-10.416,11.119 -30.362,9.705 -45.207,9.705l0,-34.969c0,-12.743 0,-14.762 5.982,-17.997c3.102,-1.82 6.205,-2.022 12.632,-2.022Zm-10.86,-4.244c-4.653,0.604 -8.642,1.216 -15.735,0.81c-5.541,0 -9.972,-1.622 -19.057,-1.622c-6.652,0 -1.391,1.014 -6.266,1.014l-7.308,4.765c2.881,0 12.243,-3.349 16.898,-1.938c8.865,2.629 7.756,10.715 7.756,23.655l0,91.782c0,12.94 1.109,21.026 -7.756,23.655c-4.655,1.41 -10.417,-0.608 -13.298,-0.608l0,3.435c4.876,0 3.322,1.014 9.974,1.014c9.085,0 13.295,-1.416 18.836,-1.416c7.091,0 13.739,1.21 13.739,1.21c20.832,1.415 47.427,3.037 66.045,-18.598c9.529,-10.713 10.635,-25.069 7.091,-35.58c-7.091,-19.206 -24.821,-25.674 -42.331,-29.921c11.746,-4.247 25.264,-9.703 30.806,-23.045c3.323,-7.883 1.774,-20.62 -3.767,-27.092c-13.298,-16.373 -46.541,-12.332 -55.627,-11.52Zm-7.754,138.482l0,-74.196c9.306,0 40.554,-1.415 54.516,16.376c7.758,10.107 9.309,26.278 4.875,37.398c-3.767,10.515 -11.746,19.005 -23.049,22.242c-9.085,2.625 -20.168,2.427 -36.342,-1.82Z" style="fill:#fff;fill-rule:nonzero;"/></g><defs><linearGradient id="_Linear1" x1="0" y1="0" x2="1" y2="0" gradientUnits="userSpaceOnUse" gradientTransform="matrix(386.575,-460.702,460.702,386.575,205.904,412.197)"><stop offset="0" style="stop-color:#00533e;stop-opacity:1"/><stop offset="0.3" style="stop-color:#639181;stop-opacity:1"/><stop offset="0.5" style="stop-color:#a8c2b9;stop-opacity:1"/><stop offset="0.7" style="stop-color:#608e7f;stop-opacity:1"/><stop offset="1" style="stop-color:#00533e;stop-opacity:1"/></linearGradient><linearGradient id="_Linear2" x1="0" y1="0" x2="1" y2="0" gradientUnits="userSpaceOnUse" gradientTransform="matrix(-1.42263e-05,325.459,-325.459,-1.42263e-05,399.133,19.1853)"><stop offset="0" style="stop-color:#b66d62;stop-opacity:1"/><stop offset="1" style="stop-color:#933530;stop-opacity:1"/></linearGradient><linearGradient id="_Linear5" x1="0" y1="0" x2="1" y2="0" gradientUnits="userSpaceOnUse" gradientTransform="matrix(-387.954,-3.39159e-05,3.39159e-05,-387.954,723.543,218.749)"><stop offset="0" style="stop-color:#fff;stop-opacity:1"/><stop offset="0.6" style="stop-color:#679485;stop-opacity:1"/><stop offset="1" style="stop-color:#0f604c;stop-opacity:1"/></linearGradient><linearGradient id="_Linear7" x1="0" y1="0" x2="1" y2="0" gradientUnits="userSpaceOnUse" gradientTransform="matrix(274.735,-230.53,230.53,274.735,109.901,271.422)"><stop offset="0" style="stop-color:#933530;stop-opacity:1"/><stop offset="0.2" style="stop-color:#b66f63;stop-opacity:1"/><stop offset="0.4" style="stop-color:#c78d81;stop-opacity:1"/><stop offset="0.5" style="stop-color:#c99084;stop-opacity:1"/><stop offset="1" style="stop-color:#933530;stop-opacity:1"/></linearGradient><linearGradient id="_Linear8" x1="0" y1="0" x2="1" y2="0" gradientUnits="userSpaceOnUse" gradientTransform="matrix(99.8372,-83.7734,83.7734,99.8372,432.819,191.062)"><stop offset="0" style="stop-color:#933530;stop-opacity:1"/><stop offset="0.2" style="stop-color:#b66f63;stop-opacity:1"/><stop offset="0.4" style="stop-color:#c78d81;stop-opacity:1"/><stop offset="0.5" style="stop-color:#c99084;stop-opacity:1"/><stop offset="1" style="stop-color:#933530;stop-opacity:1"/></linearGradient><linearGradient id="_Linear9" x1="0" y1="0" x2="1" y2="0" gradientUnits="userSpaceOnUse" gradientTransform="matrix(72.2859,-60.6551,60.6551,72.2859,530.49,198.765)"><stop offset="0" style="stop-color:#933530;stop-opacity:1"/><stop offset="0.2" style="stop-color:#b66f63;stop-opacity:1"/><stop offset="0.4" style="stop-color:#c78d81;stop-opacity:1"/><stop offset="0.5" style="stop-color:#c99084;stop-opacity:1"/><stop offset="1" style="stop-color:#933530;stop-opacity:1"/></linearGradient><linearGradient id="_Linear10" x1="0" y1="0" x2="1" y2="0" gradientUnits="userSpaceOnUse" gradientTransform="matrix(103.729,-87.0389,87.0389,103.729,612.773,196.023)"><stop offset="0" style="stop-color:#933530;stop-opacity:1"/><stop offset="0.2" style="stop-color:#b66f63;stop-opacity:1"/><stop offset="0.4" style="stop-color:#c78d81;stop-opacity:1"/><stop offset="0.5" style="stop-color:#c99084;stop-opacity:1"/><stop offset="1" style="stop-color:#933530;stop-opacity:1"/></linearGradient></defs></svg>